STARTFONT 2.1
COMMENT Font grabbed from the X server.
FONT --gohu-Medium-R-Normal--14-100-100-100-C-80-ISO10646-1
SIZE 10 100 100
FONTBOUNDINGBOX 8 14 0 -3
STARTPROPERTIES 34
FOUNDRY ""
FAMILY_NAME "gohu"
WEIGHT_NAME "Medium"
SLANT "R"
SETWIDTH_NAME "Normal"
ADD_STYLE_NAME ""
PIXEL_SIZE 14
POINT_SIZE 100
RESOLUTION_X 100
RESOLUTION_Y 100
SPACING "C"
AVERAGE_WIDTH 80
CHARSET_REGISTRY "ISO10646"
CHARSET_ENCODING "1"
FONTNAME_REGISTRY ""
FONT_NAME "gohu"
FACE_NAME "gohu"
FONT_VERSION "001.000"
UNDERLINE_POSITION -1
UNDERLINE_THICKNESS 1
X_HEIGHT 7
CAP_HEIGHT 9
RAW_ASCENT 785
RAW_DESCENT 215
NORM_SPACE 8
FIGURE_WIDTH 8
AVG_LOWERCASE_WIDTH 80
AVG_UPPERCASE_WIDTH "80"
_GBDFED_INFO "Edited with gbdfed 1.6."
WEIGHT 10
RESOLUTION 138
QUAD_WIDTH 8
FONT_ASCENT 11
FONT_DESCENT 3
ENDPROPERTIES
CHARS 849
STARTCHAR char32
ENCODING 32
SWIDTH 576 0
DWIDTH 8 0
BBX 8 14 0 -3
BITMAP
00
00
00
00
00
00
00
00
00
00
00
00
00
00
ENDCHAR
STARTCHAR char33
ENCODING 33
SWIDTH 576 0
DWIDTH 8 0
BBX 8 14 0 -3
BITMAP
00
10
10
10
10
10
10
10
00
10
10
00
00
00
ENDCHAR
STARTCHAR char34
ENCODING 34
SWIDTH 576 0
DWIDTH 8 0
BBX 8 14 0 -3
BITMAP
00
24
24
24
00
00
00
00
00
00
00
00
00
00
ENDCHAR
STARTCHAR char35
ENCODING 35
SWIDTH 576 0
DWIDTH 8 0
BBX 8 14 0 -3
BITMAP
00
28
28
28
FE
28
28
FE
28
28
28
00
00
00
ENDCHAR
STARTCHAR char36
ENCODING 36
SWIDTH 576 0
DWIDTH 8 0
BBX 8 14 0 -3
BITMAP
10
10
7C
92
90
90
7C
12
12
92
7C
10
10
00
ENDCHAR
STARTCHAR char37
ENCODING 37
SWIDTH 576 0
DWIDTH 8 0
BBX 8 14 0 -3
BITMAP
00
00
64
94
68
08
10
10
20
2C
52
4C
00
00
ENDCHAR
STARTCHAR char38
ENCODING 38
SWIDTH 576 0
DWIDTH 8 0
BBX 8 14 0 -3
BITMAP
00
18
24
24
18
30
4A
44
44
44
3A
00
00
00
ENDCHAR
STARTCHAR char39
ENCODING 39
SWIDTH 576 0
DWIDTH 8 0
BBX 8 14 0 -3
BITMAP
00
10
10
10
10
00
00
00
00
00
00
00
00
00
ENDCHAR
STARTCHAR char40
ENCODING 40
SWIDTH 576 0
DWIDTH 8 0
BBX 8 14 0 -3
BITMAP
00
08
10
20
20
40
40
40
40
20
20
10
08
00
ENDCHAR
STARTCHAR char41
ENCODING 41
SWIDTH 576 0
DWIDTH 8 0
BBX 8 14 0 -3
BITMAP
00
20
10
08
08
04
04
04
04
08
08
10
20
00
ENDCHAR
STARTCHAR char42
ENCODING 42
SWIDTH 576 0
DWIDTH 8 0
BBX 8 14 0 -3
BITMAP
00
00
00
10
92
54
38
54
92
10
00
00
00
00
ENDCHAR
STARTCHAR char43
ENCODING 43
SWIDTH 576 0
DWIDTH 8 0
BBX 8 14 0 -3
BITMAP
00
00
00
10
10
10
FE
10
10
10
00
00
00
00
ENDCHAR
STARTCHAR char44
ENCODING 44
SWIDTH 576 0
DWIDTH 8 0
BBX 8 14 0 -3
BITMAP
00
00
00
00
00
00
00
00
00
30
30
10
20
00
ENDCHAR
STARTCHAR char45
ENCODING 45
SWIDTH 576 0
DWIDTH 8 0
BBX 8 14 0 -3
BITMAP
00
00
00
00
00
00
7E
00
00
00
00
00
00
00
ENDCHAR
STARTCHAR char46
ENCODING 46
SWIDTH 576 0
DWIDTH 8 0
BBX 8 14 0 -3
BITMAP
00
00
00
00
00
00
00
00
00
30
30
00
00
00
ENDCHAR
STARTCHAR char47
ENCODING 47
SWIDTH 576 0
DWIDTH 8 0
BBX 8 14 0 -3
BITMAP
02
02
04
04
08
08
10
10
20
20
40
40
00
00
ENDCHAR
STARTCHAR char48
ENCODING 48
SWIDTH 576 0
DWIDTH 8 0
BBX 8 14 0 -3
BITMAP
00
00
3C
42
46
4A
52
62
42
42
3C
00
00
00
ENDCHAR
STARTCHAR char49
ENCODING 49
SWIDTH 576 0
DWIDTH 8 0
BBX 8 14 0 -3
BITMAP
00
00
08
18
28
48
08
08
08
08
08
00
00
00
ENDCHAR
STARTCHAR char50
ENCODING 50
SWIDTH 576 0
DWIDTH 8 0
BBX 8 14 0 -3
BITMAP
00
00
3C
42
42
04
08
10
20
40
7E
00
00
00
ENDCHAR
STARTCHAR char51
ENCODING 51
SWIDTH 576 0
DWIDTH 8 0
BBX 8 14 0 -3
BITMAP
00
00
3C
42
02
02
1C
02
02
42
3C
00
00
00
ENDCHAR
STARTCHAR char52
ENCODING 52
SWIDTH 576 0
DWIDTH 8 0
BBX 8 14 0 -3
BITMAP
00
00
04
0C
14
24
44
7E
04
04
04
00
00
00
ENDCHAR
STARTCHAR char53
ENCODING 53
SWIDTH 576 0
DWIDTH 8 0
BBX 8 14 0 -3
BITMAP
00
00
7E
40
40
7C
02
02
02
42
3C
00
00
00
ENDCHAR
STARTCHAR char54
ENCODING 54
SWIDTH 576 0
DWIDTH 8 0
BBX 8 14 0 -3
BITMAP
00
00
3C
40
40
7C
42
42
42
42
3C
00
00
00
ENDCHAR
STARTCHAR char55
ENCODING 55
SWIDTH 576 0
DWIDTH 8 0
BBX 8 14 0 -3
BITMAP
00
00
7E
02
04
04
08
08
10
10
10
00
00
00
ENDCHAR
STARTCHAR char56
ENCODING 56
SWIDTH 576 0
DWIDTH 8 0
BBX 8 14 0 -3
BITMAP
00
00
3C
42
42
42
3C
42
42
42
3C
00
00
00
ENDCHAR
STARTCHAR char57
ENCODING 57
SWIDTH 576 0
DWIDTH 8 0
BBX 8 14 0 -3
BITMAP
00
00
3C
42
42
42
3E
02
02
04
38
00
00
00
ENDCHAR
STARTCHAR char58
ENCODING 58
SWIDTH 576 0
DWIDTH 8 0
BBX 8 14 0 -3
BITMAP
00
00
00
00
18
18
00
00
00
18
18
00
00
00
ENDCHAR
STARTCHAR char59
ENCODING 59
SWIDTH 576 0
DWIDTH 8 0
BBX 8 14 0 -3
BITMAP
00
00
00
00
30
30
00
00
00
30
30
10
20
00
ENDCHAR
STARTCHAR char60
ENCODING 60
SWIDTH 576 0
DWIDTH 8 0
BBX 8 14 0 -3
BITMAP
00
00
04
08
10
20
40
20
10
08
04
00
00
00
ENDCHAR
STARTCHAR char61
ENCODING 61
SWIDTH 576 0
DWIDTH 8 0
BBX 8 14 0 -3
BITMAP
00
00
00
00
7E
00
00
00
7E
00
00
00
00
00
ENDCHAR
STARTCHAR char62
ENCODING 62
SWIDTH 576 0
DWIDTH 8 0
BBX 8 14 0 -3
BITMAP
00
00
40
20
10
08
04
08
10
20
40
00
00
00
ENDCHAR
STARTCHAR char63
ENCODING 63
SWIDTH 576 0
DWIDTH 8 0
BBX 8 14 0 -3
BITMAP
00
3C
42
02
02
04
08
10
00
10
10
00
00
00
ENDCHAR
STARTCHAR char64
ENCODING 64
SWIDTH 576 0
DWIDTH 8 0
BBX 8 14 0 -3
BITMAP
00
7C
82
9E
A2
A2
A2
A6
9A
80
7E
00
00
00
ENDCHAR
STARTCHAR char65
ENCODING 65
SWIDTH 576 0
DWIDTH 8 0
BBX 8 14 0 -3
BITMAP
00
00
3C
42
42
42
7E
42
42
42
42
00
00
00
ENDCHAR
STARTCHAR char66
ENCODING 66
SWIDTH 576 0
DWIDTH 8 0
BBX 8 14 0 -3
BITMAP
00
00
7C
42
42
42
7C
42
42
42
7C
00
00
00
ENDCHAR
STARTCHAR char67
ENCODING 67
SWIDTH 576 0
DWIDTH 8 0
BBX 8 14 0 -3
BITMAP
00
00
3C
42
40
40
40
40
40
42
3C
00
00
00
ENDCHAR
STARTCHAR char68
ENCODING 68
SWIDTH 576 0
DWIDTH 8 0
BBX 8 14 0 -3
BITMAP
00
00
78
44
42
42
42
42
42
44
78
00
00
00
ENDCHAR
STARTCHAR char69
ENCODING 69
SWIDTH 576 0
DWIDTH 8 0
BBX 8 14 0 -3
BITMAP
00
00
7E
40
40
40
78
40
40
40
7E
00
00
00
ENDCHAR
STARTCHAR char70
ENCODING 70
SWIDTH 576 0
DWIDTH 8 0
BBX 8 14 0 -3
BITMAP
00
00
7E
40
40
40
78
40
40
40
40
00
00
00
ENDCHAR
STARTCHAR char71
ENCODING 71
SWIDTH 576 0
DWIDTH 8 0
BBX 8 14 0 -3
BITMAP
00
00
3C
42
40
40
4E
42
42
42
3C
00
00
00
ENDCHAR
STARTCHAR char72
ENCODING 72
SWIDTH 576 0
DWIDTH 8 0
BBX 8 14 0 -3
BITMAP
00
00
42
42
42
42
7E
42
42
42
42
00
00
00
ENDCHAR
STARTCHAR char73
ENCODING 73
SWIDTH 576 0
DWIDTH 8 0
BBX 8 14 0 -3
BITMAP
00
00
38
10
10
10
10
10
10
10
38
00
00
00
ENDCHAR
STARTCHAR char74
ENCODING 74
SWIDTH 576 0
DWIDTH 8 0
BBX 8 14 0 -3
BITMAP
00
00
02
02
02
02
02
02
42
42
3C
00
00
00
ENDCHAR
STARTCHAR char75
ENCODING 75
SWIDTH 576 0
DWIDTH 8 0
BBX 8 14 0 -3
BITMAP
00
00
42
44
48
50
60
50
48
44
42
00
00
00
ENDCHAR
STARTCHAR char76
ENCODING 76
SWIDTH 576 0
DWIDTH 8 0
BBX 8 14 0 -3
BITMAP
00
00
40
40
40
40
40
40
40
40
7E
00
00
00
ENDCHAR
STARTCHAR char77
ENCODING 77
SWIDTH 576 0
DWIDTH 8 0
BBX 8 14 0 -3
BITMAP
00
00
82
C6
AA
92
92
82
82
82
82
00
00
00
ENDCHAR
STARTCHAR char78
ENCODING 78
SWIDTH 576 0
DWIDTH 8 0
BBX 8 14 0 -3
BITMAP
00
00
42
62
62
52
52
4A
4A
46
46
00
00
00
ENDCHAR
STARTCHAR char79
ENCODING 79
SWIDTH 576 0
DWIDTH 8 0
BBX 8 14 0 -3
BITMAP
00
00
3C
42
42
42
42
42
42
42
3C
00
00
00
ENDCHAR
STARTCHAR char80
ENCODING 80
SWIDTH 576 0
DWIDTH 8 0
BBX 8 14 0 -3
BITMAP
00
00
7C
42
42
42
7C
40
40
40
40
00
00
00
ENDCHAR
STARTCHAR char81
ENCODING 81
SWIDTH 576 0
DWIDTH 8 0
BBX 8 14 0 -3
BITMAP
00
00
3C
42
42
42
42
4A
4A
44
3A
02
00
00
ENDCHAR
STARTCHAR char82
ENCODING 82
SWIDTH 576 0
DWIDTH 8 0
BBX 8 14 0 -3
BITMAP
00
00
7C
42
42
42
7C
48
44
42
42
00
00
00
ENDCHAR
STARTCHAR char83
ENCODING 83
SWIDTH 576 0
DWIDTH 8 0
BBX 8 14 0 -3
BITMAP
00
00
3C
42
40
40
3C
02
02
42
3C
00
00
00
ENDCHAR
STARTCHAR char84
ENCODING 84
SWIDTH 576 0
DWIDTH 8 0
BBX 8 14 0 -3
BITMAP
00
00
FE
10
10
10
10
10
10
10
10
00
00
00
ENDCHAR
STARTCHAR char85
ENCODING 85
SWIDTH 576 0
DWIDTH 8 0
BBX 8 14 0 -3
BITMAP
00
00
42
42
42
42
42
42
42
42
3C
00
00
00
ENDCHAR
STARTCHAR char86
ENCODING 86
SWIDTH 576 0
DWIDTH 8 0
BBX 8 14 0 -3
BITMAP
00
00
42
42
42
42
24
24
24
18
18
00
00
00
ENDCHAR
STARTCHAR char87
ENCODING 87
SWIDTH 576 0
DWIDTH 8 0
BBX 8 14 0 -3
BITMAP
00
00
82
82
92
92
92
AA
44
44
44
00
00
00
ENDCHAR
STARTCHAR char88
ENCODING 88
SWIDTH 576 0
DWIDTH 8 0
BBX 8 14 0 -3
BITMAP
00
00
42
42
24
24
18
24
24
42
42
00
00
00
ENDCHAR
STARTCHAR char89
ENCODING 89
SWIDTH 576 0
DWIDTH 8 0
BBX 8 14 0 -3
BITMAP
00
00
82
82
44
44
28
10
10
10
10
00
00
00
ENDCHAR
STARTCHAR char90
ENCODING 90
SWIDTH 576 0
DWIDTH 8 0
BBX 8 14 0 -3
BITMAP
00
00
7E
02
04
08
10
20
40
40
7E
00
00
00
ENDCHAR
STARTCHAR char91
ENCODING 91
SWIDTH 576 0
DWIDTH 8 0
BBX 8 14 0 -3
BITMAP
00
1C
10
10
10
10
10
10
10
10
10
1C
00
00
ENDCHAR
STARTCHAR char92
ENCODING 92
SWIDTH 576 0
DWIDTH 8 0
BBX 8 14 0 -3
BITMAP
40
40
20
20
10
10
08
08
04
04
02
02
00
00
ENDCHAR
STARTCHAR char93
ENCODING 93
SWIDTH 576 0
DWIDTH 8 0
BBX 8 14 0 -3
BITMAP
00
38
08
08
08
08
08
08
08
08
08
38
00
00
ENDCHAR
STARTCHAR char94
ENCODING 94
SWIDTH 576 0
DWIDTH 8 0
BBX 8 14 0 -3
BITMAP
00
10
28
44
00
00
00
00
00
00
00
00
00
00
ENDCHAR
STARTCHAR char95
ENCODING 95
SWIDTH 576 0
DWIDTH 8 0
BBX 8 14 0 -3
BITMAP
00
00
00
00
00
00
00
00
00
00
00
FF
00
00
ENDCHAR
STARTCHAR char96
ENCODING 96
SWIDTH 576 0
DWIDTH 8 0
BBX 8 14 0 -3
BITMAP
00
40
20
10
00
00
00
00
00
00
00
00
00
00
ENDCHAR
STARTCHAR char97
ENCODING 97
SWIDTH 576 0
DWIDTH 8 0
BBX 8 14 0 -3
BITMAP
00
00
00
00
3C
02
3E
42
42
46
3A
00
00
00
ENDCHAR
STARTCHAR char98
ENCODING 98
SWIDTH 576 0
DWIDTH 8 0
BBX 8 14 0 -3
BITMAP
00
40
40
40
5C
62
42
42
42
42
7C
00
00
00
ENDCHAR
STARTCHAR char99
ENCODING 99
SWIDTH 576 0
DWIDTH 8 0
BBX 8 14 0 -3
BITMAP
00
00
00
00
3C
42
40
40
40
42
3C
00
00
00
ENDCHAR
STARTCHAR char100
ENCODING 100
SWIDTH 576 0
DWIDTH 8 0
BBX 8 14 0 -3
BITMAP
00
02
02
02
3E
42
42
42
42
46
3A
00
00
00
ENDCHAR
STARTCHAR char101
ENCODING 101
SWIDTH 576 0
DWIDTH 8 0
BBX 8 14 0 -3
BITMAP
00
00
00
00
3C
42
42
7E
40
40
3E
00
00
00
ENDCHAR
STARTCHAR char102
ENCODING 102
SWIDTH 576 0
DWIDTH 8 0
BBX 8 14 0 -3
BITMAP
00
1C
20
20
20
3C
20
20
20
20
20
00
00
00
ENDCHAR
STARTCHAR char103
ENCODING 103
SWIDTH 576 0
DWIDTH 8 0
BBX 8 14 0 -3
BITMAP
00
00
00
00
3E
42
42
42
42
46
3A
02
02
3C
ENDCHAR
STARTCHAR char104
ENCODING 104
SWIDTH 576 0
DWIDTH 8 0
BBX 8 14 0 -3
BITMAP
00
40
40
40
5C
62
42
42
42
42
42
00
00
00
ENDCHAR
STARTCHAR char105
ENCODING 105
SWIDTH 576 0
DWIDTH 8 0
BBX 8 14 0 -3
BITMAP
00
10
10
00
70
10
10
10
10
10
1C
00
00
00
ENDCHAR
STARTCHAR char106
ENCODING 106
SWIDTH 576 0
DWIDTH 8 0
BBX 8 14 0 -3
BITMAP
00
08
08
00
18
08
08
08
08
08
08
08
08
70
ENDCHAR
STARTCHAR char107
ENCODING 107
SWIDTH 576 0
DWIDTH 8 0
BBX 8 14 0 -3
BITMAP
00
40
40
40
40
44
48
70
48
44
42
00
00
00
ENDCHAR
STARTCHAR char108
ENCODING 108
SWIDTH 576 0
DWIDTH 8 0
BBX 8 14 0 -3
BITMAP
00
30
10
10
10
10
10
10
10
10
0E
00
00
00
ENDCHAR
STARTCHAR char109
ENCODING 109
SWIDTH 576 0
DWIDTH 8 0
BBX 8 14 0 -3
BITMAP
00
00
00
00
FC
92
92
92
92
92
92
00
00
00
ENDCHAR
STARTCHAR char110
ENCODING 110
SWIDTH 576 0
DWIDTH 8 0
BBX 8 14 0 -3
BITMAP
00
00
00
00
7C
42
42
42
42
42
42
00
00
00
ENDCHAR
STARTCHAR char111
ENCODING 111
SWIDTH 576 0
DWIDTH 8 0
BBX 8 14 0 -3
BITMAP
00
00
00
00
3C
42
42
42
42
42
3C
00
00
00
ENDCHAR
STARTCHAR char112
ENCODING 112
SWIDTH 576 0
DWIDTH 8 0
BBX 8 14 0 -3
BITMAP
00
00
00
00
5C
62
42
42
42
42
7C
40
40
40
ENDCHAR
STARTCHAR char113
ENCODING 113
SWIDTH 576 0
DWIDTH 8 0
BBX 8 14 0 -3
BITMAP
00
00
00
00
3E
42
42
42
42
46
3A
02
02
02
ENDCHAR
STARTCHAR char114
ENCODING 114
SWIDTH 576 0
DWIDTH 8 0
BBX 8 14 0 -3
BITMAP
00
00
00
00
5C
62
40
40
40
40
40
00
00
00
ENDCHAR
STARTCHAR char115
ENCODING 115
SWIDTH 576 0
DWIDTH 8 0
BBX 8 14 0 -3
BITMAP
00
00
00
00
3C
40
40
3C
02
02
7C
00
00
00
ENDCHAR
STARTCHAR char116
ENCODING 116
SWIDTH 576 0
DWIDTH 8 0
BBX 8 14 0 -3
BITMAP
00
10
10
10
3C
10
10
10
10
10
0C
00
00
00
ENDCHAR
STARTCHAR char117
ENCODING 117
SWIDTH 576 0
DWIDTH 8 0
BBX 8 14 0 -3
BITMAP
00
00
00
00
42
42
42
42
42
46
3A
00
00
00
ENDCHAR
STARTCHAR char118
ENCODING 118
SWIDTH 576 0
DWIDTH 8 0
BBX 8 14 0 -3
BITMAP
00
00
00
00
42
42
42
24
24
18
18
00
00
00
ENDCHAR
STARTCHAR char119
ENCODING 119
SWIDTH 576 0
DWIDTH 8 0
BBX 8 14 0 -3
BITMAP
00
00
00
00
82
82
92
92
AA
44
44
00
00
00
ENDCHAR
STARTCHAR char120
ENCODING 120
SWIDTH 576 0
DWIDTH 8 0
BBX 8 14 0 -3
BITMAP
00
00
00
00
42
42
24
18
24
42
42
00
00
00
ENDCHAR
STARTCHAR char121
ENCODING 121
SWIDTH 576 0
DWIDTH 8 0
BBX 8 14 0 -3
BITMAP
00
00
00
00
42
42
42
42
42
46
3A
02
02
3C
ENDCHAR
STARTCHAR char122
ENCODING 122
SWIDTH 576 0
DWIDTH 8 0
BBX 8 14 0 -3
BITMAP
00
00
00
00
7E
04
08
10
20
40
7E
00
00
00
ENDCHAR
STARTCHAR char123
ENCODING 123
SWIDTH 576 0
DWIDTH 8 0
BBX 8 14 0 -3
BITMAP
00
0E
10
10
10
10
10
E0
10
10
10
10
0E
00
ENDCHAR
STARTCHAR char124
ENCODING 124
SWIDTH 576 0
DWIDTH 8 0
BBX 8 14 0 -3
BITMAP
00
10
10
10
10
10
10
10
10
10
10
10
10
00
ENDCHAR
STARTCHAR char125
ENCODING 125
SWIDTH 576 0
DWIDTH 8 0
BBX 8 14 0 -3
BITMAP
00
70
08
08
08
08
08
07
08
08
08
08
70
00
ENDCHAR
STARTCHAR char126
ENCODING 126
SWIDTH 576 0
DWIDTH 8 0
BBX 8 14 0 -3
BITMAP
00
00
00
00
00
62
92
8C
00
00
00
00
00
00
ENDCHAR
STARTCHAR char160
ENCODING 160
SWIDTH 576 0
DWIDTH 8 0
BBX 8 14 0 -3
BITMAP
00
00
00
00
00
00
00
00
00
00
00
00
00
00
ENDCHAR
STARTCHAR char161
ENCODING 161
SWIDTH 576 0
DWIDTH 8 0
BBX 8 14 0 -3
BITMAP
00
10
10
00
10
10
10
10
10
10
10
00
00
00
ENDCHAR
STARTCHAR char162
ENCODING 162
SWIDTH 576 0
DWIDTH 8 0
BBX 8 14 0 -3
BITMAP
00
00
10
10
7C
92
90
90
90
92
7C
10
10
00
ENDCHAR
STARTCHAR char163
ENCODING 163
SWIDTH 576 0
DWIDTH 8 0
BBX 8 14 0 -3
BITMAP
00
18
24
20
20
78
20
20
20
22
5C
00
00
00
ENDCHAR
STARTCHAR char164
ENCODING 164
SWIDTH 576 0
DWIDTH 8 0
BBX 8 14 0 -3
BITMAP
00
00
00
00
82
7C
44
44
44
7C
82
00
00
00
ENDCHAR
STARTCHAR char165
ENCODING 165
SWIDTH 576 0
DWIDTH 8 0
BBX 8 14 0 -3
BITMAP
00
82
82
44
28
10
7C
10
7C
10
10
00
00
00
ENDCHAR
STARTCHAR char166
ENCODING 166
SWIDTH 576 0
DWIDTH 8 0
BBX 8 14 0 -3
BITMAP
00
10
10
10
10
10
00
00
10
10
10
10
10
00
ENDCHAR
STARTCHAR char167
ENCODING 167
SWIDTH 576 0
DWIDTH 8 0
BBX 8 14 0 -3
BITMAP
00
38
44
40
30
48
44
44
24
18
04
44
38
00
ENDCHAR
STARTCHAR char168
ENCODING 168
SWIDTH 576 0
DWIDTH 8 0
BBX 8 14 0 -3
BITMAP
00
24
24
00
00
00
00
00
00
00
00
00
00
00
ENDCHAR
STARTCHAR char169
ENCODING 169
SWIDTH 576 0
DWIDTH 8 0
BBX 8 14 0 -3
BITMAP
00
00
3C
42
99
A5
A1
A5
99
42
3C
00
00
00
ENDCHAR
STARTCHAR char170
ENCODING 170
SWIDTH 576 0
DWIDTH 8 0
BBX 8 14 0 -3
BITMAP
00
38
04
3C
44
3C
00
7C
00
00
00
00
00
00
ENDCHAR
STARTCHAR char171
ENCODING 171
SWIDTH 576 0
DWIDTH 8 0
BBX 8 14 0 -3
BITMAP
00
00
00
00
12
24
48
90
48
24
12
00
00
00
ENDCHAR
STARTCHAR char172
ENCODING 172
SWIDTH 576 0
DWIDTH 8 0
BBX 8 14 0 -3
BITMAP
00
00
00
00
00
7E
02
02
02
00
00
00
00
00
ENDCHAR
STARTCHAR char173
ENCODING 173
SWIDTH 576 0
DWIDTH 8 0
BBX 8 14 0 -3
BITMAP
00
00
00
00
00
00
00
3C
00
00
00
00
00
00
ENDCHAR
STARTCHAR char174
ENCODING 174
SWIDTH 576 0
DWIDTH 8 0
BBX 8 14 0 -3
BITMAP
00
00
3C
42
B9
A5
B9
A9
A5
42
3C
00
00
00
ENDCHAR
STARTCHAR char175
ENCODING 175
SWIDTH 576 0
DWIDTH 8 0
BBX 8 14 0 -3
BITMAP
00
7E
00
00
00
00
00
00
00
00
00
00
00
00
ENDCHAR
STARTCHAR char176
ENCODING 176
SWIDTH 576 0
DWIDTH 8 0
BBX 8 14 0 -3
BITMAP
00
18
24
24
18
00
00
00
00
00
00
00
00
00
ENDCHAR
STARTCHAR char177
ENCODING 177
SWIDTH 576 0
DWIDTH 8 0
BBX 8 14 0 -3
BITMAP
00
00
00
00
10
10
7C
10
10
00
7C
00
00
00
ENDCHAR
STARTCHAR char178
ENCODING 178
SWIDTH 576 0
DWIDTH 8 0
BBX 8 14 0 -3
BITMAP
00
18
24
08
10
3C
00
00
00
00
00
00
00
00
ENDCHAR
STARTCHAR char179
ENCODING 179
SWIDTH 576 0
DWIDTH 8 0
BBX 8 14 0 -3
BITMAP
00
38
04
18
04
38
00
00
00
00
00
00
00
00
ENDCHAR
STARTCHAR char180
ENCODING 180
SWIDTH 576 0
DWIDTH 8 0
BBX 8 14 0 -3
BITMAP
08
10
00
00
00
00
00
00
00
00
00
00
00
00
ENDCHAR
STARTCHAR char181
ENCODING 181
SWIDTH 576 0
DWIDTH 8 0
BBX 8 14 0 -3
BITMAP
00
00
00
00
42
42
42
42
42
46
7A
40
40
40
ENDCHAR
STARTCHAR char182
ENCODING 182
SWIDTH 576 0
DWIDTH 8 0
BBX 8 14 0 -3
BITMAP
00
7E
F2
F2
F2
F2
72
12
12
12
12
00
00
00
ENDCHAR
STARTCHAR char183
ENCODING 183
SWIDTH 576 0
DWIDTH 8 0
BBX 8 14 0 -3
BITMAP
00
00
00
00
00
00
30
30
00
00
00
00
00
00
ENDCHAR
STARTCHAR char184
ENCODING 184
SWIDTH 576 0
DWIDTH 8 0
BBX 8 14 0 -3
BITMAP
00
00
00
00
00
00
00
00
00
00
00
10
10
20
ENDCHAR
STARTCHAR char185
ENCODING 185
SWIDTH 576 0
DWIDTH 8 0
BBX 8 14 0 -3
BITMAP
00
10
30
10
10
38
00
00
00
00
00
00
00
00
ENDCHAR
STARTCHAR char186
ENCODING 186
SWIDTH 576 0
DWIDTH 8 0
BBX 8 14 0 -3
BITMAP
00
38
44
44
44
38
00
7C
00
00
00
00
00
00
ENDCHAR
STARTCHAR char187
ENCODING 187
SWIDTH 576 0
DWIDTH 8 0
BBX 8 14 0 -3
BITMAP
00
00
00
00
90
48
24
12
24
48
90
00
00
00
ENDCHAR
STARTCHAR char188
ENCODING 188
SWIDTH 576 0
DWIDTH 8 0
BBX 8 14 0 -3
BITMAP
20
60
20
22
24
08
10
22
46
8A
1E
02
02
00
ENDCHAR
STARTCHAR char189
ENCODING 189
SWIDTH 576 0
DWIDTH 8 0
BBX 8 14 0 -3
BITMAP
20
60
20
22
24
08
10
20
4C
92
04
08
1E
00
ENDCHAR
STARTCHAR char190
ENCODING 190
SWIDTH 576 0
DWIDTH 8 0
BBX 8 14 0 -3
BITMAP
E0
10
60
12
E4
08
10
22
46
8A
1E
02
02
00
ENDCHAR
STARTCHAR char191
ENCODING 191
SWIDTH 576 0
DWIDTH 8 0
BBX 8 14 0 -3
BITMAP
00
08
08
00
08
10
20
40
40
42
3C
00
00
00
ENDCHAR
STARTCHAR char192
ENCODING 192
SWIDTH 576 0
DWIDTH 8 0
BBX 8 14 0 -3
BITMAP
10
08
3C
42
42
42
7E
42
42
42
42
00
00
00
ENDCHAR
STARTCHAR char193
ENCODING 193
SWIDTH 576 0
DWIDTH 8 0
BBX 8 14 0 -3
BITMAP
08
10
3C
42
42
42
7E
42
42
42
42
00
00
00
ENDCHAR
STARTCHAR char194
ENCODING 194
SWIDTH 576 0
DWIDTH 8 0
BBX 8 14 0 -3
BITMAP
18
24
00
3C
42
42
42
7E
42
42
42
00
00
00
ENDCHAR
STARTCHAR char195
ENCODING 195
SWIDTH 576 0
DWIDTH 8 0
BBX 8 14 0 -3
BITMAP
32
4C
00
3C
42
42
42
7E
42
42
42
00
00
00
ENDCHAR
STARTCHAR char196
ENCODING 196
SWIDTH 576 0
DWIDTH 8 0
BBX 8 14 0 -3
BITMAP
24
24
00
3C
42
42
42
7E
42
42
42
00
00
00
ENDCHAR
STARTCHAR char197
ENCODING 197
SWIDTH 576 0
DWIDTH 8 0
BBX 8 14 0 -3
BITMAP
18
24
18
3C
42
42
42
7E
42
42
42
00
00
00
ENDCHAR
STARTCHAR char198
ENCODING 198
SWIDTH 576 0
DWIDTH 8 0
BBX 8 14 0 -3
BITMAP
00
00
7E
90
90
90
FC
90
90
90
9E
00
00
00
ENDCHAR
STARTCHAR char199
ENCODING 199
SWIDTH 576 0
DWIDTH 8 0
BBX 8 14 0 -3
BITMAP
00
00
3C
42
40
40
40
40
40
42
3C
10
20
00
ENDCHAR
STARTCHAR char200
ENCODING 200
SWIDTH 576 0
DWIDTH 8 0
BBX 8 14 0 -3
BITMAP
10
08
7E
40
40
40
78
40
40
40
7E
00
00
00
ENDCHAR
STARTCHAR char201
ENCODING 201
SWIDTH 576 0
DWIDTH 8 0
BBX 8 14 0 -3
BITMAP
08
10
7E
40
40
40
78
40
40
40
7E
00
00
00
ENDCHAR
STARTCHAR char202
ENCODING 202
SWIDTH 576 0
DWIDTH 8 0
BBX 8 14 0 -3
BITMAP
18
24
00
7E
40
40
78
40
40
40
7E
00
00
00
ENDCHAR
STARTCHAR char203
ENCODING 203
SWIDTH 576 0
DWIDTH 8 0
BBX 8 14 0 -3
BITMAP
24
24
00
7E
40
40
78
40
40
40
7E
00
00
00
ENDCHAR
STARTCHAR char204
ENCODING 204
SWIDTH 576 0
DWIDTH 8 0
BBX 8 14 0 -3
BITMAP
20
10
00
38
10
10
10
10
10
10
38
00
00
00
ENDCHAR
STARTCHAR char205
ENCODING 205
SWIDTH 576 0
DWIDTH 8 0
BBX 8 14 0 -3
BITMAP
08
10
00
38
10
10
10
10
10
10
38
00
00
00
ENDCHAR
STARTCHAR char206
ENCODING 206
SWIDTH 576 0
DWIDTH 8 0
BBX 8 14 0 -3
BITMAP
18
24
00
38
10
10
10
10
10
10
38
00
00
00
ENDCHAR
STARTCHAR char207
ENCODING 207
SWIDTH 576 0
DWIDTH 8 0
BBX 8 14 0 -3
BITMAP
44
44
00
38
10
10
10
10
10
10
38
00
00
00
ENDCHAR
STARTCHAR char208
ENCODING 208
SWIDTH 576 0
DWIDTH 8 0
BBX 8 14 0 -3
BITMAP
00
00
78
44
42
42
F2
42
42
44
78
00
00
00
ENDCHAR
STARTCHAR char209
ENCODING 209
SWIDTH 576 0
DWIDTH 8 0
BBX 8 14 0 -3
BITMAP
32
4C
00
62
62
52
52
4A
4A
46
46
00
00
00
ENDCHAR
STARTCHAR char210
ENCODING 210
SWIDTH 576 0
DWIDTH 8 0
BBX 8 14 0 -3
BITMAP
10
08
3C
42
42
42
42
42
42
42
3C
00
00
00
ENDCHAR
STARTCHAR char211
ENCODING 211
SWIDTH 576 0
DWIDTH 8 0
BBX 8 14 0 -3
BITMAP
08
10
3C
42
42
42
42
42
42
42
3C
00
00
00
ENDCHAR
STARTCHAR char212
ENCODING 212
SWIDTH 576 0
DWIDTH 8 0
BBX 8 14 0 -3
BITMAP
18
24
00
3C
42
42
42
42
42
42
3C
00
00
00
ENDCHAR
STARTCHAR char213
ENCODING 213
SWIDTH 576 0
DWIDTH 8 0
BBX 8 14 0 -3
BITMAP
32
4C
00
3C
42
42
42
42
42
42
3C
00
00
00
ENDCHAR
STARTCHAR char214
ENCODING 214
SWIDTH 576 0
DWIDTH 8 0
BBX 8 14 0 -3
BITMAP
24
24
00
3C
42
42
42
42
42
42
3C
00
00
00
ENDCHAR
STARTCHAR char215
ENCODING 215
SWIDTH 576 0
DWIDTH 8 0
BBX 8 14 0 -3
BITMAP
00
00
00
00
00
42
24
18
24
42
00
00
00
00
ENDCHAR
STARTCHAR char216
ENCODING 216
SWIDTH 576 0
DWIDTH 8 0
BBX 8 14 0 -3
BITMAP
02
3A
44
46
4A
4A
52
52
62
22
5C
40
00
00
ENDCHAR
STARTCHAR char217
ENCODING 217
SWIDTH 576 0
DWIDTH 8 0
BBX 8 14 0 -3
BITMAP
10
08
42
42
42
42
42
42
42
42
3C
00
00
00
ENDCHAR
STARTCHAR char218
ENCODING 218
SWIDTH 576 0
DWIDTH 8 0
BBX 8 14 0 -3
BITMAP
08
10
42
42
42
42
42
42
42
42
3C
00
00
00
ENDCHAR
STARTCHAR char219
ENCODING 219
SWIDTH 576 0
DWIDTH 8 0
BBX 8 14 0 -3
BITMAP
18
24
00
42
42
42
42
42
42
42
3C
00
00
00
ENDCHAR
STARTCHAR char220
ENCODING 220
SWIDTH 576 0
DWIDTH 8 0
BBX 8 14 0 -3
BITMAP
24
24
00
42
42
42
42
42
42
42
3C
00
00
00
ENDCHAR
STARTCHAR char221
ENCODING 221
SWIDTH 576 0
DWIDTH 8 0
BBX 8 14 0 -3
BITMAP
08
10
82
82
44
44
28
10
10
10
10
00
00
00
ENDCHAR
STARTCHAR char222
ENCODING 222
SWIDTH 576 0
DWIDTH 8 0
BBX 8 14 0 -3
BITMAP
00
40
40
7C
42
42
42
42
7C
40
40
00
00
00
ENDCHAR
STARTCHAR char223
ENCODING 223
SWIDTH 576 0
DWIDTH 8 0
BBX 8 14 0 -3
BITMAP
00
38
44
44
48
7C
42
42
42
62
5C
00
00
00
ENDCHAR
STARTCHAR char224
ENCODING 224
SWIDTH 576 0
DWIDTH 8 0
BBX 8 14 0 -3
BITMAP
00
10
08
00
3C
02
3E
42
42
46
3A
00
00
00
ENDCHAR
STARTCHAR char225
ENCODING 225
SWIDTH 576 0
DWIDTH 8 0
BBX 8 14 0 -3
BITMAP
00
08
10
00
3C
02
3E
42
42
46
3A
00
00
00
ENDCHAR
STARTCHAR char226
ENCODING 226
SWIDTH 576 0
DWIDTH 8 0
BBX 8 14 0 -3
BITMAP
00
18
24
00
3C
02
3E
42
42
46
3A
00
00
00
ENDCHAR
STARTCHAR char227
ENCODING 227
SWIDTH 576 0
DWIDTH 8 0
BBX 8 14 0 -3
BITMAP
00
32
4C
00
3C
02
3E
42
42
46
3A
00
00
00
ENDCHAR
STARTCHAR char228
ENCODING 228
SWIDTH 576 0
DWIDTH 8 0
BBX 8 14 0 -3
BITMAP
00
24
24
00
3C
02
3E
42
42
46
3A
00
00
00
ENDCHAR
STARTCHAR char229
ENCODING 229
SWIDTH 576 0
DWIDTH 8 0
BBX 8 14 0 -3
BITMAP
00
18
24
18
3C
02
3E
42
42
46
3A
00
00
00
ENDCHAR
STARTCHAR char230
ENCODING 230
SWIDTH 576 0
DWIDTH 8 0
BBX 8 14 0 -3
BITMAP
00
00
00
00
6C
12
72
9E
90
90
6C
00
00
00
ENDCHAR
STARTCHAR char231
ENCODING 231
SWIDTH 576 0
DWIDTH 8 0
BBX 8 14 0 -3
BITMAP
00
00
00
00
3C
42
40
40
40
42
3C
10
20
00
ENDCHAR
STARTCHAR char232
ENCODING 232
SWIDTH 576 0
DWIDTH 8 0
BBX 8 14 0 -3
BITMAP
00
10
08
00
3C
42
42
7E
40
40
3E
00
00
00
ENDCHAR
STARTCHAR char233
ENCODING 233
SWIDTH 576 0
DWIDTH 8 0
BBX 8 14 0 -3
BITMAP
00
08
10
00
3C
42
42
7E
40
40
3E
00
00
00
ENDCHAR
STARTCHAR char234
ENCODING 234
SWIDTH 576 0
DWIDTH 8 0
BBX 8 14 0 -3
BITMAP
00
18
24
00
3C
42
42
7E
40
40
3E
00
00
00
ENDCHAR
STARTCHAR char235
ENCODING 235
SWIDTH 576 0
DWIDTH 8 0
BBX 8 14 0 -3
BITMAP
00
24
24
00
3C
42
42
7E
40
40
3E
00
00
00
ENDCHAR
STARTCHAR char236
ENCODING 236
SWIDTH 576 0
DWIDTH 8 0
BBX 8 14 0 -3
BITMAP
00
20
10
00
70
10
10
10
10
10
1C
00
00
00
ENDCHAR
STARTCHAR char237
ENCODING 237
SWIDTH 576 0
DWIDTH 8 0
BBX 8 14 0 -3
BITMAP
00
08
10
00
70
10
10
10
10
10
1C
00
00
00
ENDCHAR
STARTCHAR char238
ENCODING 238
SWIDTH 576 0
DWIDTH 8 0
BBX 8 14 0 -3
BITMAP
00
30
48
00
70
10
10
10
10
10
1C
00
00
00
ENDCHAR
STARTCHAR char239
ENCODING 239
SWIDTH 576 0
DWIDTH 8 0
BBX 8 14 0 -3
BITMAP
00
48
48
00
70
10
10
10
10
10
1C
00
00
00
ENDCHAR
STARTCHAR char240
ENCODING 240
SWIDTH 576 0
DWIDTH 8 0
BBX 8 14 0 -3
BITMAP
00
28
10
28
3C
42
42
42
42
42
3C
00
00
00
ENDCHAR
STARTCHAR char241
ENCODING 241
SWIDTH 576 0
DWIDTH 8 0
BBX 8 14 0 -3
BITMAP
00
32
4C
00
7C
42
42
42
42
42
42
00
00
00
ENDCHAR
STARTCHAR char242
ENCODING 242
SWIDTH 576 0
DWIDTH 8 0
BBX 8 14 0 -3
BITMAP
00
10
08
00
3C
42
42
42
42
42
3C
00
00
00
ENDCHAR
STARTCHAR char243
ENCODING 243
SWIDTH 576 0
DWIDTH 8 0
BBX 8 14 0 -3
BITMAP
00
08
10
00
3C
42
42
42
42
42
3C
00
00
00
ENDCHAR
STARTCHAR char244
ENCODING 244
SWIDTH 576 0
DWIDTH 8 0
BBX 8 14 0 -3
BITMAP
00
18
24
00
3C
42
42
42
42
42
3C
00
00
00
ENDCHAR
STARTCHAR char245
ENCODING 245
SWIDTH 576 0
DWIDTH 8 0
BBX 8 14 0 -3
BITMAP
00
32
4C
00
3C
42
42
42
42
42
3C
00
00
00
ENDCHAR
STARTCHAR char246
ENCODING 246
SWIDTH 576 0
DWIDTH 8 0
BBX 8 14 0 -3
BITMAP
00
24
24
00
3C
42
42
42
42
42
3C
00
00
00
ENDCHAR
STARTCHAR char247
ENCODING 247
SWIDTH 576 0
DWIDTH 8 0
BBX 8 14 0 -3
BITMAP
00
00
00
00
10
10
00
7C
00
10
10
00
00
00
ENDCHAR
STARTCHAR char248
ENCODING 248
SWIDTH 576 0
DWIDTH 8 0
BBX 8 14 0 -3
BITMAP
00
00
00
02
3C
46
4A
52
62
42
BC
00
00
00
ENDCHAR
STARTCHAR char249
ENCODING 249
SWIDTH 576 0
DWIDTH 8 0
BBX 8 14 0 -3
BITMAP
00
10
08
00
42
42
42
42
42
46
3A
00
00
00
ENDCHAR
STARTCHAR char250
ENCODING 250
SWIDTH 576 0
DWIDTH 8 0
BBX 8 14 0 -3
BITMAP
00
08
10
00
42
42
42
42
42
46
3A
00
00
00
ENDCHAR
STARTCHAR char251
ENCODING 251
SWIDTH 576 0
DWIDTH 8 0
BBX 8 14 0 -3
BITMAP
00
18
24
00
42
42
42
42
42
46
3A
00
00
00
ENDCHAR
STARTCHAR char252
ENCODING 252
SWIDTH 576 0
DWIDTH 8 0
BBX 8 14 0 -3
BITMAP
00
24
24
00
42
42
42
42
42
46
3A
00
00
00
ENDCHAR
STARTCHAR char253
ENCODING 253
SWIDTH 576 0
DWIDTH 8 0
BBX 8 14 0 -3
BITMAP
00
08
10
00
42
42
42
42
42
46
3A
02
02
3C
ENDCHAR
STARTCHAR char254
ENCODING 254
SWIDTH 576 0
DWIDTH 8 0
BBX 8 14 0 -3
BITMAP
00
40
40
40
7C
42
42
42
42
42
7C
40
40
00
ENDCHAR
STARTCHAR char255
ENCODING 255
SWIDTH 576 0
DWIDTH 8 0
BBX 8 14 0 -3
BITMAP
00
24
24
00
42
42
42
42
42
46
3A
02
02
3C
ENDCHAR
STARTCHAR char256
ENCODING 256
SWIDTH 576 0
DWIDTH 8 0
BBX 8 14 0 -3
BITMAP
3C
00
3C
42
42
42
7E
42
42
42
42
00
00
00
ENDCHAR
STARTCHAR char257
ENCODING 257
SWIDTH 576 0
DWIDTH 8 0
BBX 8 14 0 -3
BITMAP
00
00
3C
00
3C
02
3E
42
42
46
3A
00
00
00
ENDCHAR
STARTCHAR char258
ENCODING 258
SWIDTH 576 0
DWIDTH 8 0
BBX 8 14 0 -3
BITMAP
24
18
00
3C
42
42
42
7E
42
42
42
00
00
00
ENDCHAR
STARTCHAR char259
ENCODING 259
SWIDTH 576 0
DWIDTH 8 0
BBX 8 14 0 -3
BITMAP
00
24
18
00
3C
02
3E
42
42
46
3A
00
00
00
ENDCHAR
STARTCHAR char260
ENCODING 260
SWIDTH 576 0
DWIDTH 8 0
BBX 8 14 0 -3
BITMAP
00
00
3C
42
42
42
7E
42
42
42
42
04
03
00
ENDCHAR
STARTCHAR char261
ENCODING 261
SWIDTH 576 0
DWIDTH 8 0
BBX 8 14 0 -3
BITMAP
00
00
00
00
3C
02
3E
42
42
46
3A
04
03
00
ENDCHAR
STARTCHAR char262
ENCODING 262
SWIDTH 576 0
DWIDTH 8 0
BBX 8 14 0 -3
BITMAP
08
10
3C
42
40
40
40
40
40
42
3C
00
00
00
ENDCHAR
STARTCHAR char263
ENCODING 263
SWIDTH 576 0
DWIDTH 8 0
BBX 8 14 0 -3
BITMAP
00
08
10
00
3C
42
40
40
40
42
3C
00
00
00
ENDCHAR
STARTCHAR char264
ENCODING 264
SWIDTH 576 0
DWIDTH 8 0
BBX 8 14 0 -3
BITMAP
18
24
00
3C
42
40
40
40
40
42
3C
00
00
00
ENDCHAR
STARTCHAR char265
ENCODING 265
SWIDTH 576 0
DWIDTH 8 0
BBX 8 14 0 -3
BITMAP
00
18
24
00
3C
42
40
40
40
42
3C
00
00
00
ENDCHAR
STARTCHAR char266
ENCODING 266
SWIDTH 576 0
DWIDTH 8 0
BBX 8 14 0 -3
BITMAP
10
10
00
3C
42
40
40
40
40
42
3C
00
00
00
ENDCHAR
STARTCHAR char267
ENCODING 267
SWIDTH 576 0
DWIDTH 8 0
BBX 8 14 0 -3
BITMAP
00
10
10
00
3C
42
40
40
40
42
3C
00
00
00
ENDCHAR
STARTCHAR char268
ENCODING 268
SWIDTH 576 0
DWIDTH 8 0
BBX 8 14 0 -3
BITMAP
24
18
00
3C
42
42
40
40
40
42
3C
00
00
00
ENDCHAR
STARTCHAR char269
ENCODING 269
SWIDTH 576 0
DWIDTH 8 0
BBX 8 14 0 -3
BITMAP
00
24
18
00
3C
42
40
40
40
42
3C
00
00
00
ENDCHAR
STARTCHAR char270
ENCODING 270
SWIDTH 576 0
DWIDTH 8 0
BBX 8 14 0 -3
BITMAP
24
18
00
78
44
42
42
42
42
44
78
00
00
00
ENDCHAR
STARTCHAR char271
ENCODING 271
SWIDTH 576 0
DWIDTH 8 0
BBX 8 14 0 -3
BITMAP
24
18
02
02
02
3E
42
42
42
46
3A
00
00
00
ENDCHAR
STARTCHAR char272
ENCODING 272
SWIDTH 576 0
DWIDTH 8 0
BBX 8 14 0 -3
BITMAP
00
00
78
44
42
42
F2
42
42
44
78
00
00
00
ENDCHAR
STARTCHAR char273
ENCODING 273
SWIDTH 576 0
DWIDTH 8 0
BBX 8 14 0 -3
BITMAP
00
02
0F
02
3E
42
42
42
42
46
3A
00
00
00
ENDCHAR
STARTCHAR char274
ENCODING 274
SWIDTH 576 0
DWIDTH 8 0
BBX 8 14 0 -3
BITMAP
3C
00
7E
40
40
40
78
40
40
40
7E
00
00
00
ENDCHAR
STARTCHAR char275
ENCODING 275
SWIDTH 576 0
DWIDTH 8 0
BBX 8 14 0 -3
BITMAP
00
00
3C
00
3C
42
42
7E
40
40
3E
00
00
00
ENDCHAR
STARTCHAR char276
ENCODING 276
SWIDTH 576 0
DWIDTH 8 0
BBX 8 14 0 -3
BITMAP
24
18
00
7E
40
40
78
40
40
40
7E
00
00
00
ENDCHAR
STARTCHAR char277
ENCODING 277
SWIDTH 576 0
DWIDTH 8 0
BBX 8 14 0 -3
BITMAP
00
24
18
00
3C
42
42
7E
40
40
3E
00
00
00
ENDCHAR
STARTCHAR char278
ENCODING 278
SWIDTH 576 0
DWIDTH 8 0
BBX 8 14 0 -3
BITMAP
10
10
00
7E
40
40
78
40
40
40
7E
00
00
00
ENDCHAR
STARTCHAR char279
ENCODING 279
SWIDTH 576 0
DWIDTH 8 0
BBX 8 14 0 -3
BITMAP
00
10
10
00
3C
42
42
7E
40
40
3E
00
00
00
ENDCHAR
STARTCHAR char280
ENCODING 280
SWIDTH 576 0
DWIDTH 8 0
BBX 8 14 0 -3
BITMAP
00
00
7E
40
40
40
78
40
40
40
7E
04
03
00
ENDCHAR
STARTCHAR char281
ENCODING 281
SWIDTH 576 0
DWIDTH 8 0
BBX 8 14 0 -3
BITMAP
00
00
00
00
3C
42
42
7E
40
40
3E
08
06
00
ENDCHAR
STARTCHAR char282
ENCODING 282
SWIDTH 576 0
DWIDTH 8 0
BBX 8 14 0 -3
BITMAP
24
18
00
7E
40
40
78
40
40
40
7E
00
00
00
ENDCHAR
STARTCHAR char283
ENCODING 283
SWIDTH 576 0
DWIDTH 8 0
BBX 8 14 0 -3
BITMAP
00
24
18
00
3C
42
42
7E
40
40
3C
00
00
00
ENDCHAR
STARTCHAR char284
ENCODING 284
SWIDTH 576 0
DWIDTH 8 0
BBX 8 14 0 -3
BITMAP
18
24
00
3C
42
40
40
4E
42
42
3C
00
00
00
ENDCHAR
STARTCHAR char285
ENCODING 285
SWIDTH 576 0
DWIDTH 8 0
BBX 8 14 0 -3
BITMAP
00
18
24
00
3E
42
42
42
42
46
3A
02
02
3C
ENDCHAR
STARTCHAR char286
ENCODING 286
SWIDTH 576 0
DWIDTH 8 0
BBX 8 14 0 -3
BITMAP
24
18
00
3C
42
40
40
4E
42
42
3C
00
00
00
ENDCHAR
STARTCHAR char287
ENCODING 287
SWIDTH 576 0
DWIDTH 8 0
BBX 8 14 0 -3
BITMAP
00
24
18
00
3E
42
42
42
42
46
3A
02
02
3C
ENDCHAR
STARTCHAR char288
ENCODING 288
SWIDTH 576 0
DWIDTH 8 0
BBX 8 14 0 -3
BITMAP
10
10
00
3C
42
40
40
4E
42
42
3C
00
00
00
ENDCHAR
STARTCHAR char289
ENCODING 289
SWIDTH 576 0
DWIDTH 8 0
BBX 8 14 0 -3
BITMAP
00
08
08
00
3E
42
42
42
42
46
3A
02
02
3C
ENDCHAR
STARTCHAR char290
ENCODING 290
SWIDTH 576 0
DWIDTH 8 0
BBX 8 14 0 -3
BITMAP
00
00
3C
42
40
40
4E
42
42
42
3C
10
20
00
ENDCHAR
STARTCHAR char291
ENCODING 291
SWIDTH 576 0
DWIDTH 8 0
BBX 8 14 0 -3
BITMAP
04
08
08
00
3E
42
42
42
42
46
3A
02
02
3C
ENDCHAR
STARTCHAR char292
ENCODING 292
SWIDTH 576 0
DWIDTH 8 0
BBX 8 14 0 -3
BITMAP
18
24
00
42
42
42
7E
42
42
42
42
00
00
00
ENDCHAR
STARTCHAR char293
ENCODING 293
SWIDTH 576 0
DWIDTH 8 0
BBX 8 14 0 -3
BITMAP
0C
12
40
40
40
5C
62
42
42
42
42
00
00
00
ENDCHAR
STARTCHAR char294
ENCODING 294
SWIDTH 576 0
DWIDTH 8 0
BBX 8 14 0 -3
BITMAP
00
00
42
FF
42
42
7E
42
42
42
42
00
00
00
ENDCHAR
STARTCHAR char295
ENCODING 295
SWIDTH 576 0
DWIDTH 8 0
BBX 8 14 0 -3
BITMAP
00
40
F8
40
5C
62
42
42
42
42
42
00
00
00
ENDCHAR
STARTCHAR char296
ENCODING 296
SWIDTH 576 0
DWIDTH 8 0
BBX 8 14 0 -3
BITMAP
32
4C
00
38
10
10
10
10
10
10
38
00
00
00
ENDCHAR
STARTCHAR char297
ENCODING 297
SWIDTH 576 0
DWIDTH 8 0
BBX 8 14 0 -3
BITMAP
00
34
58
00
70
10
10
10
10
10
1C
00
00
00
ENDCHAR
STARTCHAR char298
ENCODING 298
SWIDTH 576 0
DWIDTH 8 0
BBX 8 14 0 -3
BITMAP
7C
00
38
10
10
10
10
10
10
10
38
00
00
00
ENDCHAR
STARTCHAR char299
ENCODING 299
SWIDTH 576 0
DWIDTH 8 0
BBX 8 14 0 -3
BITMAP
00
00
78
00
70
10
10
10
10
10
1C
00
00
00
ENDCHAR
STARTCHAR char300
ENCODING 300
SWIDTH 576 0
DWIDTH 8 0
BBX 8 14 0 -3
BITMAP
24
18
00
38
10
10
10
10
10
10
38
00
00
00
ENDCHAR
STARTCHAR char301
ENCODING 301
SWIDTH 576 0
DWIDTH 8 0
BBX 8 14 0 -3
BITMAP
00
48
30
00
70
10
10
10
10
10
1C
00
00
00
ENDCHAR
STARTCHAR char302
ENCODING 302
SWIDTH 576 0
DWIDTH 8 0
BBX 8 14 0 -3
BITMAP
00
00
38
10
10
10
10
10
10
10
38
10
0C
00
ENDCHAR
STARTCHAR char303
ENCODING 303
SWIDTH 576 0
DWIDTH 8 0
BBX 8 14 0 -3
BITMAP
00
10
10
00
70
10
10
10
10
10
1C
10
0C
00
ENDCHAR
STARTCHAR char304
ENCODING 304
SWIDTH 576 0
DWIDTH 8 0
BBX 8 14 0 -3
BITMAP
10
10
00
38
10
10
10
10
10
10
38
00
00
00
ENDCHAR
STARTCHAR char305
ENCODING 305
SWIDTH 576 0
DWIDTH 8 0
BBX 8 14 0 -3
BITMAP
00
00
00
00
70
10
10
10
10
10
1C
00
00
00
ENDCHAR
STARTCHAR char306
ENCODING 306
SWIDTH 576 0
DWIDTH 8 0
BBX 8 14 0 -3
BITMAP
00
00
E2
42
42
42
42
42
52
52
EC
00
00
00
ENDCHAR
STARTCHAR char307
ENCODING 307
SWIDTH 576 0
DWIDTH 8 0
BBX 8 14 0 -3
BITMAP
00
22
22
00
E6
22
22
22
22
22
3A
02
02
1C
ENDCHAR
STARTCHAR char308
ENCODING 308
SWIDTH 576 0
DWIDTH 8 0
BBX 8 14 0 -3
BITMAP
0C
12
00
04
04
04
04
04
44
44
38
00
00
00
ENDCHAR
STARTCHAR char309
ENCODING 309
SWIDTH 576 0
DWIDTH 8 0
BBX 8 14 0 -3
BITMAP
00
0C
12
00
0C
04
04
04
04
04
04
04
04
38
ENDCHAR
STARTCHAR char310
ENCODING 310
SWIDTH 576 0
DWIDTH 8 0
BBX 8 14 0 -3
BITMAP
00
00
42
44
48
50
60
50
48
44
52
10
20
00
ENDCHAR
STARTCHAR char311
ENCODING 311
SWIDTH 576 0
DWIDTH 8 0
BBX 8 14 0 -3
BITMAP
00
40
40
40
40
44
48
70
48
44
52
10
20
00
ENDCHAR
STARTCHAR char312
ENCODING 312
SWIDTH 576 0
DWIDTH 8 0
BBX 8 14 0 -3
BITMAP
00
00
00
00
42
44
48
70
48
44
42
00
00
00
ENDCHAR
STARTCHAR char313
ENCODING 313
SWIDTH 576 0
DWIDTH 8 0
BBX 8 14 0 -3
BITMAP
20
40
00
40
40
40
40
40
40
40
7E
00
00
00
ENDCHAR
STARTCHAR char314
ENCODING 314
SWIDTH 576 0
DWIDTH 8 0
BBX 8 14 0 -3
BITMAP
08
10
00
30
10
10
10
10
10
10
0C
00
00
00
ENDCHAR
STARTCHAR char315
ENCODING 315
SWIDTH 576 0
DWIDTH 8 0
BBX 8 14 0 -3
BITMAP
00
00
40
40
40
40
40
40
40
40
7E
10
20
00
ENDCHAR
STARTCHAR char316
ENCODING 316
SWIDTH 576 0
DWIDTH 8 0
BBX 8 14 0 -3
BITMAP
00
30
10
10
10
10
10
10
10
10
0E
10
20
00
ENDCHAR
STARTCHAR char317
ENCODING 317
SWIDTH 576 0
DWIDTH 8 0
BBX 8 14 0 -3
BITMAP
24
18
40
40
40
40
40
40
40
40
7E
00
00
00
ENDCHAR
STARTCHAR char318
ENCODING 318
SWIDTH 576 0
DWIDTH 8 0
BBX 8 14 0 -3
BITMAP
48
30
00
30
10
10
10
10
10
10
0E
00
00
00
ENDCHAR
STARTCHAR char319
ENCODING 319
SWIDTH 576 0
DWIDTH 8 0
BBX 8 14 0 -3
BITMAP
00
00
40
40
40
44
44
40
40
40
7E
00
00
00
ENDCHAR
STARTCHAR char320
ENCODING 320
SWIDTH 576 0
DWIDTH 8 0
BBX 8 14 0 -3
BITMAP
00
30
10
10
10
11
11
10
10
10
0E
00
00
00
ENDCHAR
STARTCHAR char321
ENCODING 321
SWIDTH 576 0
DWIDTH 8 0
BBX 8 14 0 -3
BITMAP
00
00
40
40
40
40
60
C0
40
40
7E
00
00
00
ENDCHAR
STARTCHAR char322
ENCODING 322
SWIDTH 576 0
DWIDTH 8 0
BBX 8 14 0 -3
BITMAP
00
00
30
10
10
10
18
30
10
10
0E
00
00
00
ENDCHAR
STARTCHAR char323
ENCODING 323
SWIDTH 576 0
DWIDTH 8 0
BBX 8 14 0 -3
BITMAP
08
10
42
62
62
52
52
4A
4A
46
46
00
00
00
ENDCHAR
STARTCHAR char324
ENCODING 324
SWIDTH 576 0
DWIDTH 8 0
BBX 8 14 0 -3
BITMAP
00
08
10
00
7C
42
42
42
42
42
42
00
00
00
ENDCHAR
STARTCHAR char325
ENCODING 325
SWIDTH 576 0
DWIDTH 8 0
BBX 8 14 0 -3
BITMAP
00
00
42
62
62
52
52
4A
4A
46
56
10
20
00
ENDCHAR
STARTCHAR char326
ENCODING 326
SWIDTH 576 0
DWIDTH 8 0
BBX 8 14 0 -3
BITMAP
00
00
00
00
7C
42
42
42
42
42
52
10
20
00
ENDCHAR
STARTCHAR char327
ENCODING 327
SWIDTH 576 0
DWIDTH 8 0
BBX 8 14 0 -3
BITMAP
24
18
42
62
62
52
52
4A
4A
46
46
00
00
00
ENDCHAR
STARTCHAR char328
ENCODING 328
SWIDTH 576 0
DWIDTH 8 0
BBX 8 14 0 -3
BITMAP
00
24
18
00
7C
42
42
42
42
42
42
00
00
00
ENDCHAR
STARTCHAR char329
ENCODING 329
SWIDTH 576 0
DWIDTH 8 0
BBX 8 14 0 -3
BITMAP
40
40
80
00
7C
42
42
42
42
42
42
00
00
00
ENDCHAR
STARTCHAR char330
ENCODING 330
SWIDTH 576 0
DWIDTH 8 0
BBX 8 14 0 -3
BITMAP
00
00
42
62
62
52
52
4A
4A
46
46
02
04
00
ENDCHAR
STARTCHAR char331
ENCODING 331
SWIDTH 576 0
DWIDTH 8 0
BBX 8 14 0 -3
BITMAP
00
00
00
00
7C
42
42
42
42
42
42
02
04
00
ENDCHAR
STARTCHAR char332
ENCODING 332
SWIDTH 576 0
DWIDTH 8 0
BBX 8 14 0 -3
BITMAP
3C
00
3C
42
42
42
42
42
42
42
3C
00
00
00
ENDCHAR
STARTCHAR char333
ENCODING 333
SWIDTH 576 0
DWIDTH 8 0
BBX 8 14 0 -3
BITMAP
00
00
3C
00
3C
42
42
42
42
42
3C
00
00
00
ENDCHAR
STARTCHAR char334
ENCODING 334
SWIDTH 576 0
DWIDTH 8 0
BBX 8 14 0 -3
BITMAP
24
18
00
3C
42
42
42
42
42
42
3C
00
00
00
ENDCHAR
STARTCHAR char335
ENCODING 335
SWIDTH 576 0
DWIDTH 8 0
BBX 8 14 0 -3
BITMAP
00
24
18
00
3C
42
42
42
42
42
3C
00
00
00
ENDCHAR
STARTCHAR char336
ENCODING 336
SWIDTH 576 0
DWIDTH 8 0
BBX 8 14 0 -3
BITMAP
12
24
00
3C
42
42
42
42
42
42
3C
00
00
00
ENDCHAR
STARTCHAR char337
ENCODING 337
SWIDTH 576 0
DWIDTH 8 0
BBX 8 14 0 -3
BITMAP
00
12
24
00
3C
42
42
42
42
42
3C
00
00
00
ENDCHAR
STARTCHAR char338
ENCODING 338
SWIDTH 576 0
DWIDTH 8 0
BBX 8 14 0 -3
BITMAP
00
00
7E
90
90
90
9C
90
90
90
7E
00
00
00
ENDCHAR
STARTCHAR char339
ENCODING 339
SWIDTH 576 0
DWIDTH 8 0
BBX 8 14 0 -3
BITMAP
00
00
00
00
7C
92
92
9E
90
90
7C
00
00
00
ENDCHAR
STARTCHAR char340
ENCODING 340
SWIDTH 576 0
DWIDTH 8 0
BBX 8 14 0 -3
BITMAP
08
10
7C
42
42
42
7C
48
44
42
42
00
00
00
ENDCHAR
STARTCHAR char341
ENCODING 341
SWIDTH 576 0
DWIDTH 8 0
BBX 8 14 0 -3
BITMAP
00
08
10
00
5C
62
40
40
40
40
40
00
00
00
ENDCHAR
STARTCHAR char342
ENCODING 342
SWIDTH 576 0
DWIDTH 8 0
BBX 8 14 0 -3
BITMAP
00
00
7C
42
42
42
7C
48
44
42
52
10
20
00
ENDCHAR
STARTCHAR char343
ENCODING 343
SWIDTH 576 0
DWIDTH 8 0
BBX 8 14 0 -3
BITMAP
00
00
00
00
5C
62
40
40
40
40
60
20
40
00
ENDCHAR
STARTCHAR char344
ENCODING 344
SWIDTH 576 0
DWIDTH 8 0
BBX 8 14 0 -3
BITMAP
24
18
00
7C
42
42
7C
48
44
42
42
00
00
00
ENDCHAR
STARTCHAR char345
ENCODING 345
SWIDTH 576 0
DWIDTH 8 0
BBX 8 14 0 -3
BITMAP
00
24
18
00
5C
62
40
40
40
40
40
00
00
00
ENDCHAR
STARTCHAR char346
ENCODING 346
SWIDTH 576 0
DWIDTH 8 0
BBX 8 14 0 -3
BITMAP
08
10
3C
42
40
40
3C
02
02
42
3C
00
00
00
ENDCHAR
STARTCHAR char347
ENCODING 347
SWIDTH 576 0
DWIDTH 8 0
BBX 8 14 0 -3
BITMAP
00
04
08
00
3E
40
40
3C
02
02
7C
00
00
00
ENDCHAR
STARTCHAR char348
ENCODING 348
SWIDTH 576 0
DWIDTH 8 0
BBX 8 14 0 -3
BITMAP
18
24
00
3C
42
40
3C
02
02
42
3C
00
00
00
ENDCHAR
STARTCHAR char349
ENCODING 349
SWIDTH 576 0
DWIDTH 8 0
BBX 8 14 0 -3
BITMAP
00
18
24
00
3E
40
40
3C
02
02
7C
00
00
00
ENDCHAR
STARTCHAR char350
ENCODING 350
SWIDTH 576 0
DWIDTH 8 0
BBX 8 14 0 -3
BITMAP
00
00
3C
42
40
40
3C
02
02
42
3C
00
10
20
ENDCHAR
STARTCHAR char351
ENCODING 351
SWIDTH 576 0
DWIDTH 8 0
BBX 8 14 0 -3
BITMAP
00
00
00
00
3E
40
40
3C
02
02
7C
10
20
00
ENDCHAR
STARTCHAR char352
ENCODING 352
SWIDTH 576 0
DWIDTH 8 0
BBX 8 14 0 -3
BITMAP
24
18
00
3C
42
40
3C
02
02
42
3C
00
00
00
ENDCHAR
STARTCHAR char353
ENCODING 353
SWIDTH 576 0
DWIDTH 8 0
BBX 8 14 0 -3
BITMAP
00
24
18
00
3E
40
40
3C
02
02
7C
00
00
00
ENDCHAR
STARTCHAR char354
ENCODING 354
SWIDTH 576 0
DWIDTH 8 0
BBX 8 14 0 -3
BITMAP
00
00
FE
10
10
10
10
10
10
10
18
08
10
00
ENDCHAR
STARTCHAR char355
ENCODING 355
SWIDTH 576 0
DWIDTH 8 0
BBX 8 14 0 -3
BITMAP
00
10
10
10
3C
10
10
10
10
10
0C
04
08
00
ENDCHAR
STARTCHAR char356
ENCODING 356
SWIDTH 576 0
DWIDTH 8 0
BBX 8 14 0 -3
BITMAP
24
18
00
FE
10
10
10
10
10
10
10
00
00
00
ENDCHAR
STARTCHAR char357
ENCODING 357
SWIDTH 576 0
DWIDTH 8 0
BBX 8 14 0 -3
BITMAP
24
18
00
10
10
3C
10
10
10
10
0C
00
00
00
ENDCHAR
STARTCHAR char358
ENCODING 358
SWIDTH 576 0
DWIDTH 8 0
BBX 8 14 0 -3
BITMAP
00
00
FE
10
10
7C
10
10
10
10
10
00
00
00
ENDCHAR
STARTCHAR char359
ENCODING 359
SWIDTH 576 0
DWIDTH 8 0
BBX 8 14 0 -3
BITMAP
00
10
10
10
3C
10
38
10
10
10
0C
00
00
00
ENDCHAR
STARTCHAR char360
ENCODING 360
SWIDTH 576 0
DWIDTH 8 0
BBX 8 14 0 -3
BITMAP
32
4C
00
42
42
42
42
42
42
42
3C
00
00
00
ENDCHAR
STARTCHAR char361
ENCODING 361
SWIDTH 576 0
DWIDTH 8 0
BBX 8 14 0 -3
BITMAP
00
32
4C
00
42
42
42
42
42
46
3A
00
00
00
ENDCHAR
STARTCHAR char362
ENCODING 362
SWIDTH 576 0
DWIDTH 8 0
BBX 8 14 0 -3
BITMAP
3C
00
42
42
42
42
42
42
42
42
3C
00
00
00
ENDCHAR
STARTCHAR char363
ENCODING 363
SWIDTH 576 0
DWIDTH 8 0
BBX 8 14 0 -3
BITMAP
00
00
3C
00
42
42
42
42
42
46
3A
00
00
00
ENDCHAR
STARTCHAR char364
ENCODING 364
SWIDTH 576 0
DWIDTH 8 0
BBX 8 14 0 -3
BITMAP
24
18
42
42
42
42
42
42
42
42
3C
00
00
00
ENDCHAR
STARTCHAR char365
ENCODING 365
SWIDTH 576 0
DWIDTH 8 0
BBX 8 14 0 -3
BITMAP
00
24
18
00
42
42
42
42
42
46
3A
00
00
00
ENDCHAR
STARTCHAR char366
ENCODING 366
SWIDTH 576 0
DWIDTH 8 0
BBX 8 14 0 -3
BITMAP
18
24
18
42
42
42
42
42
42
42
3C
00
00
00
ENDCHAR
STARTCHAR char367
ENCODING 367
SWIDTH 576 0
DWIDTH 8 0
BBX 8 14 0 -3
BITMAP
00
18
24
18
42
42
42
42
42
46
3A
00
00
00
ENDCHAR
STARTCHAR char368
ENCODING 368
SWIDTH 576 0
DWIDTH 8 0
BBX 8 14 0 -3
BITMAP
12
24
00
42
42
42
42
42
42
42
3C
00
00
00
ENDCHAR
STARTCHAR char369
ENCODING 369
SWIDTH 576 0
DWIDTH 8 0
BBX 8 14 0 -3
BITMAP
00
12
24
00
42
42
42
42
42
46
3A
00
00
00
ENDCHAR
STARTCHAR char370
ENCODING 370
SWIDTH 576 0
DWIDTH 8 0
BBX 8 14 0 -3
BITMAP
00
00
42
42
42
42
42
42
42
42
3C
08
06
00
ENDCHAR
STARTCHAR char371
ENCODING 371
SWIDTH 576 0
DWIDTH 8 0
BBX 8 14 0 -3
BITMAP
00
00
00
00
42
42
42
42
42
46
3A
04
03
00
ENDCHAR
STARTCHAR char372
ENCODING 372
SWIDTH 576 0
DWIDTH 8 0
BBX 8 14 0 -3
BITMAP
18
24
00
82
82
92
92
92
AA
44
44
00
00
00
ENDCHAR
STARTCHAR char373
ENCODING 373
SWIDTH 576 0
DWIDTH 8 0
BBX 8 14 0 -3
BITMAP
00
18
24
00
82
82
92
92
AA
44
44
00
00
00
ENDCHAR
STARTCHAR char376
ENCODING 376
SWIDTH 576 0
DWIDTH 8 0
BBX 8 14 0 -3
BITMAP
44
44
00
82
82
44
44
28
10
10
10
00
00
00
ENDCHAR
STARTCHAR char377
ENCODING 377
SWIDTH 576 0
DWIDTH 8 0
BBX 8 14 0 -3
BITMAP
08
10
00
7E
02
04
08
10
20
40
7E
00
00
00
ENDCHAR
STARTCHAR char378
ENCODING 378
SWIDTH 576 0
DWIDTH 8 0
BBX 8 14 0 -3
BITMAP
00
08
10
00
7E
04
08
10
20
40
7E
00
00
00
ENDCHAR
STARTCHAR char379
ENCODING 379
SWIDTH 576 0
DWIDTH 8 0
BBX 8 14 0 -3
BITMAP
10
10
00
7E
02
04
08
10
20
40
7E
00
00
00
ENDCHAR
STARTCHAR char380
ENCODING 380
SWIDTH 576 0
DWIDTH 8 0
BBX 8 14 0 -3
BITMAP
00
10
10
00
7E
04
08
10
20
40
7E
00
00
00
ENDCHAR
STARTCHAR char381
ENCODING 381
SWIDTH 576 0
DWIDTH 8 0
BBX 8 14 0 -3
BITMAP
24
18
00
7E
02
04
08
10
20
40
7E
00
00
00
ENDCHAR
STARTCHAR char382
ENCODING 382
SWIDTH 576 0
DWIDTH 8 0
BBX 8 14 0 -3
BITMAP
00
24
18
00
7E
04
08
10
20
40
7E
00
00
00
ENDCHAR
STARTCHAR char383
ENCODING 383
SWIDTH 576 0
DWIDTH 8 0
BBX 8 14 0 -3
BITMAP
00
0E
10
10
10
10
10
10
10
10
10
00
00
00
ENDCHAR
STARTCHAR char390
ENCODING 390
SWIDTH 576 0
DWIDTH 8 0
BBX 8 14 0 -3
BITMAP
00
3C
42
42
02
02
02
02
42
42
3C
00
00
00
ENDCHAR
STARTCHAR char398
ENCODING 398
SWIDTH 576 0
DWIDTH 8 0
BBX 8 14 0 -3
BITMAP
00
00
7E
02
02
02
1E
02
02
02
7E
00
00
00
ENDCHAR
STARTCHAR char399
ENCODING 399
SWIDTH 576 0
DWIDTH 8 0
BBX 8 14 0 -3
BITMAP
00
00
3C
42
02
02
7E
42
42
42
3C
00
00
00
ENDCHAR
STARTCHAR char400
ENCODING 400
SWIDTH 576 0
DWIDTH 8 0
BBX 8 14 0 -3
BITMAP
00
00
3C
42
40
40
38
40
40
42
3C
00
00
00
ENDCHAR
STARTCHAR char402
ENCODING 402
SWIDTH 576 0
DWIDTH 8 0
BBX 8 14 0 -3
BITMAP
00
0C
12
10
10
7C
10
10
10
10
10
90
60
00
ENDCHAR
STARTCHAR char413
ENCODING 413
SWIDTH 576 0
DWIDTH 8 0
BBX 8 14 0 -3
BITMAP
00
00
42
62
62
52
52
4A
4A
46
46
40
80
00
ENDCHAR
STARTCHAR char414
ENCODING 414
SWIDTH 576 0
DWIDTH 8 0
BBX 8 14 0 -3
BITMAP
00
00
00
00
7C
42
42
42
42
42
42
02
02
00
ENDCHAR
STARTCHAR char439
ENCODING 439
SWIDTH 576 0
DWIDTH 8 0
BBX 8 14 0 -3
BITMAP
00
00
7E
02
04
08
1C
02
42
42
3C
00
00
00
ENDCHAR
STARTCHAR char536
ENCODING 536
SWIDTH 576 0
DWIDTH 8 0
BBX 8 14 0 -3
BITMAP
00
00
3C
42
40
40
3C
02
02
42
3C
10
20
00
ENDCHAR
STARTCHAR char537
ENCODING 537
SWIDTH 576 0
DWIDTH 8 0
BBX 8 14 0 -3
BITMAP
00
00
00
00
3E
40
40
3C
02
02
7C
10
20
00
ENDCHAR
STARTCHAR char538
ENCODING 538
SWIDTH 576 0
DWIDTH 8 0
BBX 8 14 0 -3
BITMAP
00
00
FE
10
10
10
10
10
10
10
18
08
10
00
ENDCHAR
STARTCHAR char539
ENCODING 539
SWIDTH 576 0
DWIDTH 8 0
BBX 8 14 0 -3
BITMAP
00
10
10
10
3C
10
10
10
10
10
0C
04
08
00
ENDCHAR
STARTCHAR char562
ENCODING 562
SWIDTH 576 0
DWIDTH 8 0
BBX 8 14 0 -3
BITMAP
7C
00
82
82
44
44
28
10
10
10
10
00
00
00
ENDCHAR
STARTCHAR char563
ENCODING 563
SWIDTH 576 0
DWIDTH 8 0
BBX 8 14 0 -3
BITMAP
00
00
3C
00
42
42
42
42
42
46
3A
02
02
3C
ENDCHAR
STARTCHAR char567
ENCODING 567
SWIDTH 576 0
DWIDTH 8 0
BBX 8 14 0 -3
BITMAP
00
00
00
00
0C
04
04
04
04
04
04
04
04
38
ENDCHAR
STARTCHAR char596
ENCODING 596
SWIDTH 576 0
DWIDTH 8 0
BBX 8 14 0 -3
BITMAP
00
00
00
00
00
3C
42
02
02
02
42
3C
00
00
ENDCHAR
STARTCHAR char600
ENCODING 600
SWIDTH 576 0
DWIDTH 8 0
BBX 8 14 0 -3
BITMAP
00
00
00
00
3C
42
42
7E
02
02
7C
00
00
00
ENDCHAR
STARTCHAR char601
ENCODING 601
SWIDTH 576 0
DWIDTH 8 0
BBX 8 14 0 -3
BITMAP
00
00
00
00
7C
02
02
7E
42
42
3C
00
00
00
ENDCHAR
STARTCHAR char603
ENCODING 603
SWIDTH 576 0
DWIDTH 8 0
BBX 8 14 0 -3
BITMAP
00
00
00
00
3C
42
40
38
40
42
3C
00
00
00
ENDCHAR
STARTCHAR char626
ENCODING 626
SWIDTH 576 0
DWIDTH 8 0
BBX 8 14 0 -3
BITMAP
00
00
00
00
7C
42
42
42
42
42
42
40
80
00
ENDCHAR
STARTCHAR char658
ENCODING 658
SWIDTH 576 0
DWIDTH 8 0
BBX 8 14 0 -3
BITMAP
00
00
00
00
7E
02
04
08
1C
02
02
42
3C
00
ENDCHAR
STARTCHAR char699
ENCODING 699
SWIDTH 576 0
DWIDTH 8 0
BBX 8 14 0 -3
BITMAP
08
10
10
00
00
00
00
00
00
00
00
00
00
00
ENDCHAR
STARTCHAR char700
ENCODING 700
SWIDTH 576 0
DWIDTH 8 0
BBX 8 14 0 -3
BITMAP
08
08
10
00
00
00
00
00
00
00
00
00
00
00
ENDCHAR
STARTCHAR char701
ENCODING 701
SWIDTH 576 0
DWIDTH 8 0
BBX 8 14 0 -3
BITMAP
10
10
08
00
00
00
00
00
00
00
00
00
00
00
ENDCHAR
STARTCHAR char710
ENCODING 710
SWIDTH 576 0
DWIDTH 8 0
BBX 8 14 0 -3
BITMAP
18
24
00
00
00
00
00
00
00
00
00
00
00
00
ENDCHAR
STARTCHAR char711
ENCODING 711
SWIDTH 576 0
DWIDTH 8 0
BBX 8 14 0 -3
BITMAP
24
18
00
00
00
00
00
00
00
00
00
00
00
00
ENDCHAR
STARTCHAR char728
ENCODING 728
SWIDTH 576 0
DWIDTH 8 0
BBX 8 14 0 -3
BITMAP
24
18
00
00
00
00
00
00
00
00
00
00
00
00
ENDCHAR
STARTCHAR char729
ENCODING 729
SWIDTH 576 0
DWIDTH 8 0
BBX 8 14 0 -3
BITMAP
10
10
00
00
00
00
00
00
00
00
00
00
00
00
ENDCHAR
STARTCHAR char731
ENCODING 731
SWIDTH 576 0
DWIDTH 8 0
BBX 8 14 0 -3
BITMAP
00
00
00
00
00
00
00
00
00
00
00
02
04
03
ENDCHAR
STARTCHAR char732
ENCODING 732
SWIDTH 576 0
DWIDTH 8 0
BBX 8 14 0 -3
BITMAP
32
4C
00
00
00
00
00
00
00
00
00
00
00
00
ENDCHAR
STARTCHAR char733
ENCODING 733
SWIDTH 576 0
DWIDTH 8 0
BBX 8 14 0 -3
BITMAP
12
24
00
00
00
00
00
00
00
00
00
00
00
00
ENDCHAR
STARTCHAR char768
ENCODING 768
SWIDTH 576 0
DWIDTH 8 0
BBX 8 14 0 -3
BITMAP
10
08
00
00
00
00
00
00
00
00
00
00
00
00
ENDCHAR
STARTCHAR char769
ENCODING 769
SWIDTH 576 0
DWIDTH 8 0
BBX 8 14 0 -3
BITMAP
08
10
00
00
00
00
00
00
00
00
00
00
00
00
ENDCHAR
STARTCHAR char770
ENCODING 770
SWIDTH 576 0
DWIDTH 8 0
BBX 8 14 0 -3
BITMAP
18
24
00
00
00
00
00
00
00
00
00
00
00
00
ENDCHAR
STARTCHAR char771
ENCODING 771
SWIDTH 576 0
DWIDTH 8 0
BBX 8 14 0 -3
BITMAP
32
4C
00
00
00
00
00
00
00
00
00
00
00
00
ENDCHAR
STARTCHAR char774
ENCODING 774
SWIDTH 576 0
DWIDTH 8 0
BBX 8 14 0 -3
BITMAP
24
18
00
00
00
00
00
00
00
00
00
00
00
00
ENDCHAR
STARTCHAR char780
ENCODING 780
SWIDTH 576 0
DWIDTH 8 0
BBX 8 14 0 -3
BITMAP
24
18
00
00
00
00
00
00
00
00
00
00
00
00
ENDCHAR
STARTCHAR char809
ENCODING 809
SWIDTH 576 0
DWIDTH 8 0
BBX 8 14 0 -3
BITMAP
00
00
00
00
00
00
00
00
00
00
00
00
10
10
ENDCHAR
STARTCHAR char900
ENCODING 900
SWIDTH 576 0
DWIDTH 8 0
BBX 8 14 0 -3
BITMAP
40
80
00
00
00
00
00
00
00
00
00
00
00
00
ENDCHAR
STARTCHAR char901
ENCODING 901
SWIDTH 576 0
DWIDTH 8 0
BBX 8 14 0 -3
BITMAP
08
10
00
24
00
00
00
00
00
00
00
00
00
00
ENDCHAR
STARTCHAR char902
ENCODING 902
SWIDTH 576 0
DWIDTH 8 0
BBX 8 14 0 -3
BITMAP
40
80
3C
42
42
42
7E
42
42
42
42
00
00
00
ENDCHAR
STARTCHAR char903
ENCODING 903
SWIDTH 576 0
DWIDTH 8 0
BBX 8 14 0 -3
BITMAP
00
00
00
00
00
10
10
00
00
00
00
00
00
00
ENDCHAR
STARTCHAR char904
ENCODING 904
SWIDTH 576 0
DWIDTH 8 0
BBX 8 14 0 -3
BITMAP
40
80
7E
40
40
40
78
40
40
40
7E
00
00
00
ENDCHAR
STARTCHAR char905
ENCODING 905
SWIDTH 576 0
DWIDTH 8 0
BBX 8 14 0 -3
BITMAP
40
80
42
42
42
42
7E
42
42
42
42
00
00
00
ENDCHAR
STARTCHAR char906
ENCODING 906
SWIDTH 576 0
DWIDTH 8 0
BBX 8 14 0 -3
BITMAP
40
80
38
10
10
10
10
10
10
10
38
00
00
00
ENDCHAR
STARTCHAR char908
ENCODING 908
SWIDTH 576 0
DWIDTH 8 0
BBX 8 14 0 -3
BITMAP
40
80
3C
42
42
42
42
42
42
42
3C
00
00
00
ENDCHAR
STARTCHAR char910
ENCODING 910
SWIDTH 576 0
DWIDTH 8 0
BBX 8 14 0 -3
BITMAP
40
80
00
82
82
44
44
28
10
10
10
00
00
00
ENDCHAR
STARTCHAR char911
ENCODING 911
SWIDTH 576 0
DWIDTH 8 0
BBX 8 14 0 -3
BITMAP
40
80
3C
42
42
42
42
42
24
24
66
00
00
00
ENDCHAR
STARTCHAR char912
ENCODING 912
SWIDTH 576 0
DWIDTH 8 0
BBX 8 14 0 -3
BITMAP
08
10
48
48
00
30
10
10
10
10
0C
00
00
00
ENDCHAR
STARTCHAR char913
ENCODING 913
SWIDTH 576 0
DWIDTH 8 0
BBX 8 14 0 -3
BITMAP
00
00
3C
42
42
42
7E
42
42
42
42
00
00
00
ENDCHAR
STARTCHAR char914
ENCODING 914
SWIDTH 576 0
DWIDTH 8 0
BBX 8 14 0 -3
BITMAP
00
00
7C
42
42
42
7C
42
42
42
7C
00
00
00
ENDCHAR
STARTCHAR char915
ENCODING 915
SWIDTH 576 0
DWIDTH 8 0
BBX 8 14 0 -3
BITMAP
00
00
7E
40
40
40
40
40
40
40
40
00
00
00
ENDCHAR
STARTCHAR char916
ENCODING 916
SWIDTH 576 0
DWIDTH 8 0
BBX 8 14 0 -3
BITMAP
00
00
10
10
28
28
44
44
44
82
FE
00
00
00
ENDCHAR
STARTCHAR char917
ENCODING 917
SWIDTH 576 0
DWIDTH 8 0
BBX 8 14 0 -3
BITMAP
00
00
7E
40
40
40
78
40
40
40
7E
00
00
00
ENDCHAR
STARTCHAR char918
ENCODING 918
SWIDTH 576 0
DWIDTH 8 0
BBX 8 14 0 -3
BITMAP
00
00
7E
02
04
08
10
20
40
40
7E
00
00
00
ENDCHAR
STARTCHAR char919
ENCODING 919
SWIDTH 576 0
DWIDTH 8 0
BBX 8 14 0 -3
BITMAP
00
00
42
42
42
42
7E
42
42
42
42
00
00
00
ENDCHAR
STARTCHAR char920
ENCODING 920
SWIDTH 576 0
DWIDTH 8 0
BBX 8 14 0 -3
BITMAP
00
00
3C
42
42
42
5A
42
42
42
3C
00
00
00
ENDCHAR
STARTCHAR char921
ENCODING 921
SWIDTH 576 0
DWIDTH 8 0
BBX 8 14 0 -3
BITMAP
00
00
38
10
10
10
10
10
10
10
38
00
00
00
ENDCHAR
STARTCHAR char922
ENCODING 922
SWIDTH 576 0
DWIDTH 8 0
BBX 8 14 0 -3
BITMAP
00
00
42
44
48
50
60
50
48
44
42
00
00
00
ENDCHAR
STARTCHAR char923
ENCODING 923
SWIDTH 576 0
DWIDTH 8 0
BBX 8 14 0 -3
BITMAP
00
00
10
10
28
28
44
44
44
82
82
00
00
00
ENDCHAR
STARTCHAR char924
ENCODING 924
SWIDTH 576 0
DWIDTH 8 0
BBX 8 14 0 -3
BITMAP
00
00
82
C6
AA
92
92
82
82
82
82
00
00
00
ENDCHAR
STARTCHAR char925
ENCODING 925
SWIDTH 576 0
DWIDTH 8 0
BBX 8 14 0 -3
BITMAP
00
00
42
62
62
52
52
4A
4A
46
46
00
00
00
ENDCHAR
STARTCHAR char926
ENCODING 926
SWIDTH 576 0
DWIDTH 8 0
BBX 8 14 0 -3
BITMAP
00
00
7E
00
00
00
3C
00
00
00
7E
00
00
00
ENDCHAR
STARTCHAR char927
ENCODING 927
SWIDTH 576 0
DWIDTH 8 0
BBX 8 14 0 -3
BITMAP
00
00
3C
42
42
42
42
42
42
42
3C
00
00
00
ENDCHAR
STARTCHAR char928
ENCODING 928
SWIDTH 576 0
DWIDTH 8 0
BBX 8 14 0 -3
BITMAP
00
00
7E
42
42
42
42
42
42
42
42
00
00
00
ENDCHAR
STARTCHAR char929
ENCODING 929
SWIDTH 576 0
DWIDTH 8 0
BBX 8 14 0 -3
BITMAP
00
00
7C
42
42
42
7C
40
40
40
40
00
00
00
ENDCHAR
STARTCHAR char931
ENCODING 931
SWIDTH 576 0
DWIDTH 8 0
BBX 8 14 0 -3
BITMAP
00
00
7E
40
20
10
08
10
20
40
7E
00
00
00
ENDCHAR
STARTCHAR char932
ENCODING 932
SWIDTH 576 0
DWIDTH 8 0
BBX 8 14 0 -3
BITMAP
00
00
FE
10
10
10
10
10
10
10
10
00
00
00
ENDCHAR
STARTCHAR char933
ENCODING 933
SWIDTH 576 0
DWIDTH 8 0
BBX 8 14 0 -3
BITMAP
00
00
82
82
44
44
28
10
10
10
10
00
00
00
ENDCHAR
STARTCHAR char934
ENCODING 934
SWIDTH 576 0
DWIDTH 8 0
BBX 8 14 0 -3
BITMAP
00
00
10
7C
92
92
92
92
92
92
7C
10
00
00
ENDCHAR
STARTCHAR char935
ENCODING 935
SWIDTH 576 0
DWIDTH 8 0
BBX 8 14 0 -3
BITMAP
00
00
42
42
24
24
18
24
24
42
42
00
00
00
ENDCHAR
STARTCHAR char936
ENCODING 936
SWIDTH 576 0
DWIDTH 8 0
BBX 8 14 0 -3
BITMAP
00
00
92
92
92
92
92
92
7C
10
10
00
00
00
ENDCHAR
STARTCHAR char937
ENCODING 937
SWIDTH 576 0
DWIDTH 8 0
BBX 8 14 0 -3
BITMAP
00
00
3C
42
42
42
42
42
24
24
66
00
00
00
ENDCHAR
STARTCHAR char938
ENCODING 938
SWIDTH 576 0
DWIDTH 8 0
BBX 8 14 0 -3
BITMAP
44
44
00
38
10
10
10
10
10
10
38
00
00
00
ENDCHAR
STARTCHAR char939
ENCODING 939
SWIDTH 576 0
DWIDTH 8 0
BBX 8 14 0 -3
BITMAP
44
44
00
82
82
44
44
28
10
10
10
00
00
00
ENDCHAR
STARTCHAR char940
ENCODING 940
SWIDTH 576 0
DWIDTH 8 0
BBX 8 14 0 -3
BITMAP
00
08
10
00
3A
46
44
44
44
46
3A
00
00
00
ENDCHAR
STARTCHAR char941
ENCODING 941
SWIDTH 576 0
DWIDTH 8 0
BBX 8 14 0 -3
BITMAP
00
08
10
00
3C
42
40
38
40
42
3C
00
00
00
ENDCHAR
STARTCHAR char942
ENCODING 942
SWIDTH 576 0
DWIDTH 8 0
BBX 8 14 0 -3
BITMAP
00
08
10
00
7C
42
42
42
42
42
42
02
02
00
ENDCHAR
STARTCHAR char943
ENCODING 943
SWIDTH 576 0
DWIDTH 8 0
BBX 8 14 0 -3
BITMAP
00
08
10
00
30
10
10
10
10
10
0C
00
00
00
ENDCHAR
STARTCHAR char944
ENCODING 944
SWIDTH 576 0
DWIDTH 8 0
BBX 8 14 0 -3
BITMAP
08
10
00
24
00
42
42
42
42
42
3C
00
00
00
ENDCHAR
STARTCHAR char945
ENCODING 945
SWIDTH 576 0
DWIDTH 8 0
BBX 8 14 0 -3
BITMAP
00
00
00
00
3A
46
44
44
44
46
3A
00
00
00
ENDCHAR
STARTCHAR char946
ENCODING 946
SWIDTH 576 0
DWIDTH 8 0
BBX 8 14 0 -3
BITMAP
00
00
38
44
44
48
7C
42
42
42
7C
40
40
00
ENDCHAR
STARTCHAR char947
ENCODING 947
SWIDTH 576 0
DWIDTH 8 0
BBX 8 14 0 -3
BITMAP
00
00
00
00
82
82
44
44
28
28
10
10
10
00
ENDCHAR
STARTCHAR char948
ENCODING 948
SWIDTH 576 0
DWIDTH 8 0
BBX 8 14 0 -3
BITMAP
00
00
3E
10
08
3C
42
42
42
42
3C
00
00
00
ENDCHAR
STARTCHAR char949
ENCODING 949
SWIDTH 576 0
DWIDTH 8 0
BBX 8 14 0 -3
BITMAP
00
00
00
00
3C
42
40
38
40
42
3C
00
00
00
ENDCHAR
STARTCHAR char950
ENCODING 950
SWIDTH 576 0
DWIDTH 8 0
BBX 8 14 0 -3
BITMAP
00
00
7C
04
08
10
20
40
40
40
3C
02
04
00
ENDCHAR
STARTCHAR char951
ENCODING 951
SWIDTH 576 0
DWIDTH 8 0
BBX 8 14 0 -3
BITMAP
00
00
00
00
7C
42
42
42
42
42
42
02
02
00
ENDCHAR
STARTCHAR char952
ENCODING 952
SWIDTH 576 0
DWIDTH 8 0
BBX 8 14 0 -3
BITMAP
00
00
38
44
44
44
7C
44
44
44
38
00
00
00
ENDCHAR
STARTCHAR char953
ENCODING 953
SWIDTH 576 0
DWIDTH 8 0
BBX 8 14 0 -3
BITMAP
00
00
00
00
30
10
10
10
10
10
0C
00
00
00
ENDCHAR
STARTCHAR char954
ENCODING 954
SWIDTH 576 0
DWIDTH 8 0
BBX 8 14 0 -3
BITMAP
00
00
00
00
42
44
48
70
48
44
42
00
00
00
ENDCHAR
STARTCHAR char955
ENCODING 955
SWIDTH 576 0
DWIDTH 8 0
BBX 8 14 0 -3
BITMAP
00
00
20
20
10
10
28
28
44
44
82
00
00
00
ENDCHAR
STARTCHAR char956
ENCODING 956
SWIDTH 576 0
DWIDTH 8 0
BBX 8 14 0 -3
BITMAP
00
00
00
00
42
42
42
42
42
46
7A
40
40
00
ENDCHAR
STARTCHAR char957
ENCODING 957
SWIDTH 576 0
DWIDTH 8 0
BBX 8 14 0 -3
BITMAP
00
00
00
00
00
42
42
24
24
18
18
00
00
00
ENDCHAR
STARTCHAR char958
ENCODING 958
SWIDTH 576 0
DWIDTH 8 0
BBX 8 14 0 -3
BITMAP
00
00
3E
40
40
40
3C
40
40
40
3C
02
04
00
ENDCHAR
STARTCHAR char959
ENCODING 959
SWIDTH 576 0
DWIDTH 8 0
BBX 8 14 0 -3
BITMAP
00
00
00
00
3C
42
42
42
42
42
3C
00
00
00
ENDCHAR
STARTCHAR char960
ENCODING 960
SWIDTH 576 0
DWIDTH 8 0
BBX 8 14 0 -3
BITMAP
00
00
00
00
7E
42
42
42
42
42
42
00
00
00
ENDCHAR
STARTCHAR char961
ENCODING 961
SWIDTH 576 0
DWIDTH 8 0
BBX 8 14 0 -3
BITMAP
00
00
00
00
3C
42
42
42
42
42
7C
40
40
00
ENDCHAR
STARTCHAR char962
ENCODING 962
SWIDTH 576 0
DWIDTH 8 0
BBX 8 14 0 -3
BITMAP
00
00
00
00
3C
42
40
40
40
40
3C
02
04
00
ENDCHAR
STARTCHAR char963
ENCODING 963
SWIDTH 576 0
DWIDTH 8 0
BBX 8 14 0 -3
BITMAP
00
00
00
00
3E
44
44
44
44
44
38
00
00
00
ENDCHAR
STARTCHAR char964
ENCODING 964
SWIDTH 576 0
DWIDTH 8 0
BBX 8 14 0 -3
BITMAP
00
00
00
00
FE
10
10
10
10
10
0C
00
00
00
ENDCHAR
STARTCHAR char965
ENCODING 965
SWIDTH 576 0
DWIDTH 8 0
BBX 8 14 0 -3
BITMAP
00
00
00
00
42
42
42
42
42
42
3C
00
00
00
ENDCHAR
STARTCHAR char966
ENCODING 966
SWIDTH 576 0
DWIDTH 8 0
BBX 8 14 0 -3
BITMAP
00
00
00
00
4C
92
92
92
92
92
7C
10
10
00
ENDCHAR
STARTCHAR char967
ENCODING 967
SWIDTH 576 0
DWIDTH 8 0
BBX 8 14 0 -3
BITMAP
00
00
00
00
42
42
24
24
18
24
24
42
42
00
ENDCHAR
STARTCHAR char968
ENCODING 968
SWIDTH 576 0
DWIDTH 8 0
BBX 8 14 0 -3
BITMAP
00
00
00
00
92
92
92
92
92
92
7C
10
10
00
ENDCHAR
STARTCHAR char969
ENCODING 969
SWIDTH 576 0
DWIDTH 8 0
BBX 8 14 0 -3
BITMAP
00
00
00
00
44
82
92
92
92
92
6C
00
00
00
ENDCHAR
STARTCHAR char970
ENCODING 970
SWIDTH 576 0
DWIDTH 8 0
BBX 8 14 0 -3
BITMAP
00
48
48
00
30
10
10
10
10
10
0C
00
00
00
ENDCHAR
STARTCHAR char971
ENCODING 971
SWIDTH 576 0
DWIDTH 8 0
BBX 8 14 0 -3
BITMAP
00
24
24
00
42
42
42
42
42
42
3C
00
00
00
ENDCHAR
STARTCHAR char972
ENCODING 972
SWIDTH 576 0
DWIDTH 8 0
BBX 8 14 0 -3
BITMAP
00
08
10
00
3C
42
42
42
42
42
3C
00
00
00
ENDCHAR
STARTCHAR char973
ENCODING 973
SWIDTH 576 0
DWIDTH 8 0
BBX 8 14 0 -3
BITMAP
00
08
10
00
42
42
42
42
42
42
3C
00
00
00
ENDCHAR
STARTCHAR char974
ENCODING 974
SWIDTH 576 0
DWIDTH 8 0
BBX 8 14 0 -3
BITMAP
00
08
10
00
44
82
92
92
92
92
6C
00
00
00
ENDCHAR
STARTCHAR char1011
ENCODING 1011
SWIDTH 576 0
DWIDTH 8 0
BBX 8 14 0 -3
BITMAP
00
00
04
04
00
0C
04
04
04
04
04
44
44
38
ENDCHAR
STARTCHAR char1012
ENCODING 1012
SWIDTH 576 0
DWIDTH 8 0
BBX 8 14 0 -3
BITMAP
00
00
3C
42
42
42
7E
42
42
42
42
3C
00
00
ENDCHAR
STARTCHAR char1024
ENCODING 1024
SWIDTH 576 0
DWIDTH 8 0
BBX 8 14 0 -3
BITMAP
10
08
00
7E
40
40
78
40
40
40
7E
00
00
00
ENDCHAR
STARTCHAR char1025
ENCODING 1025
SWIDTH 576 0
DWIDTH 8 0
BBX 8 14 0 -3
BITMAP
24
24
00
7E
40
40
78
40
40
40
7E
00
00
00
ENDCHAR
STARTCHAR char1026
ENCODING 1026
SWIDTH 576 0
DWIDTH 8 0
BBX 8 14 0 -3
BITMAP
00
00
F8
20
20
3C
22
22
22
22
22
02
04
00
ENDCHAR
STARTCHAR char1027
ENCODING 1027
SWIDTH 576 0
DWIDTH 8 0
BBX 8 14 0 -3
BITMAP
08
10
00
7E
40
40
40
40
40
40
40
00
00
00
ENDCHAR
STARTCHAR char1028
ENCODING 1028
SWIDTH 576 0
DWIDTH 8 0
BBX 8 14 0 -3
BITMAP
00
00
3C
42
40
40
78
40
40
42
3C
00
00
00
ENDCHAR
STARTCHAR char1029
ENCODING 1029
SWIDTH 576 0
DWIDTH 8 0
BBX 8 14 0 -3
BITMAP
00
00
3C
42
40
40
3C
02
02
42
3C
00
00
00
ENDCHAR
STARTCHAR char1030
ENCODING 1030
SWIDTH 576 0
DWIDTH 8 0
BBX 8 14 0 -3
BITMAP
00
00
38
10
10
10
10
10
10
10
38
00
00
00
ENDCHAR
STARTCHAR char1031
ENCODING 1031
SWIDTH 576 0
DWIDTH 8 0
BBX 8 14 0 -3
BITMAP
44
44
00
38
10
10
10
10
10
10
38
00
00
00
ENDCHAR
STARTCHAR char1032
ENCODING 1032
SWIDTH 576 0
DWIDTH 8 0
BBX 8 14 0 -3
BITMAP
00
00
02
02
02
02
02
02
42
42
3C
00
00
00
ENDCHAR
STARTCHAR char1033
ENCODING 1033
SWIDTH 576 0
DWIDTH 8 0
BBX 8 14 0 -3
BITMAP
00
00
30
50
90
9C
92
92
92
92
9C
00
00
00
ENDCHAR
STARTCHAR char1034
ENCODING 1034
SWIDTH 576 0
DWIDTH 8 0
BBX 8 14 0 -3
BITMAP
00
00
90
90
90
9C
F2
92
92
92
9C
00
00
00
ENDCHAR
STARTCHAR char1035
ENCODING 1035
SWIDTH 576 0
DWIDTH 8 0
BBX 8 14 0 -3
BITMAP
00
00
F8
20
20
3C
22
22
22
22
22
00
00
00
ENDCHAR
STARTCHAR char1036
ENCODING 1036
SWIDTH 576 0
DWIDTH 8 0
BBX 8 14 0 -3
BITMAP
08
10
42
44
48
50
60
50
48
44
42
00
00
00
ENDCHAR
STARTCHAR char1037
ENCODING 1037
SWIDTH 576 0
DWIDTH 8 0
BBX 8 14 0 -3
BITMAP
10
08
42
46
46
4A
4A
52
52
62
62
00
00
00
ENDCHAR
STARTCHAR char1038
ENCODING 1038
SWIDTH 576 0
DWIDTH 8 0
BBX 8 14 0 -3
BITMAP
24
18
42
42
42
42
3E
02
02
02
3C
00
00
00
ENDCHAR
STARTCHAR char1039
ENCODING 1039
SWIDTH 576 0
DWIDTH 8 0
BBX 8 14 0 -3
BITMAP
00
00
42
42
42
42
42
42
42
42
7E
18
18
00
ENDCHAR
STARTCHAR char1040
ENCODING 1040
SWIDTH 576 0
DWIDTH 8 0
BBX 8 14 0 -3
BITMAP
00
00
3C
42
42
42
7E
42
42
42
42
00
00
00
ENDCHAR
STARTCHAR char1041
ENCODING 1041
SWIDTH 576 0
DWIDTH 8 0
BBX 8 14 0 -3
BITMAP
00
00
7C
40
40
7C
42
42
42
42
7C
00
00
00
ENDCHAR
STARTCHAR char1042
ENCODING 1042
SWIDTH 576 0
DWIDTH 8 0
BBX 8 14 0 -3
BITMAP
00
00
7C
42
42
42
7C
42
42
42
7C
00
00
00
ENDCHAR
STARTCHAR char1043
ENCODING 1043
SWIDTH 576 0
DWIDTH 8 0
BBX 8 14 0 -3
BITMAP
00
00
7E
40
40
40
40
40
40
40
40
00
00
00
ENDCHAR
STARTCHAR char1044
ENCODING 1044
SWIDTH 576 0
DWIDTH 8 0
BBX 8 14 0 -3
BITMAP
00
00
3C
44
44
44
44
44
44
44
FE
82
00
00
ENDCHAR
STARTCHAR char1045
ENCODING 1045
SWIDTH 576 0
DWIDTH 8 0
BBX 8 14 0 -3
BITMAP
00
00
7E
40
40
40
78
40
40
40
7E
00
00
00
ENDCHAR
STARTCHAR char1046
ENCODING 1046
SWIDTH 576 0
DWIDTH 8 0
BBX 8 14 0 -3
BITMAP
00
00
92
92
92
54
38
54
92
92
92
00
00
00
ENDCHAR
STARTCHAR char1047
ENCODING 1047
SWIDTH 576 0
DWIDTH 8 0
BBX 8 14 0 -3
BITMAP
00
00
3C
42
42
02
1C
02
42
42
3C
00
00
00
ENDCHAR
STARTCHAR char1048
ENCODING 1048
SWIDTH 576 0
DWIDTH 8 0
BBX 8 14 0 -3
BITMAP
00
00
42
46
46
4A
4A
52
52
62
62
00
00
00
ENDCHAR
STARTCHAR char1049
ENCODING 1049
SWIDTH 576 0
DWIDTH 8 0
BBX 8 14 0 -3
BITMAP
24
18
42
46
46
4A
4A
52
52
62
62
00
00
00
ENDCHAR
STARTCHAR char1050
ENCODING 1050
SWIDTH 576 0
DWIDTH 8 0
BBX 8 14 0 -3
BITMAP
00
00
42
44
48
50
60
50
48
44
42
00
00
00
ENDCHAR
STARTCHAR char1051
ENCODING 1051
SWIDTH 576 0
DWIDTH 8 0
BBX 8 14 0 -3
BITMAP
00
00
0E
12
22
22
22
22
22
22
42
00
00
00
ENDCHAR
STARTCHAR char1052
ENCODING 1052
SWIDTH 576 0
DWIDTH 8 0
BBX 8 14 0 -3
BITMAP
00
00
82
C6
AA
92
92
82
82
82
82
00
00
00
ENDCHAR
STARTCHAR char1053
ENCODING 1053
SWIDTH 576 0
DWIDTH 8 0
BBX 8 14 0 -3
BITMAP
00
00
42
42
42
42
7E
42
42
42
42
00
00
00
ENDCHAR
STARTCHAR char1054
ENCODING 1054
SWIDTH 576 0
DWIDTH 8 0
BBX 8 14 0 -3
BITMAP
00
00
3C
42
42
42
42
42
42
42
3C
00
00
00
ENDCHAR
STARTCHAR char1055
ENCODING 1055
SWIDTH 576 0
DWIDTH 8 0
BBX 8 14 0 -3
BITMAP
00
00
7E
42
42
42
42
42
42
42
42
00
00
00
ENDCHAR
STARTCHAR char1056
ENCODING 1056
SWIDTH 576 0
DWIDTH 8 0
BBX 8 14 0 -3
BITMAP
00
00
7C
42
42
42
7C
40
40
40
40
00
00
00
ENDCHAR
STARTCHAR char1057
ENCODING 1057
SWIDTH 576 0
DWIDTH 8 0
BBX 8 14 0 -3
BITMAP
00
00
3C
42
40
40
40
40
40
42
3C
00
00
00
ENDCHAR
STARTCHAR char1058
ENCODING 1058
SWIDTH 576 0
DWIDTH 8 0
BBX 8 14 0 -3
BITMAP
00
00
FE
10
10
10
10
10
10
10
10
00
00
00
ENDCHAR
STARTCHAR char1059
ENCODING 1059
SWIDTH 576 0
DWIDTH 8 0
BBX 8 14 0 -3
BITMAP
00
00
42
42
42
42
3E
02
02
02
3C
00
00
00
ENDCHAR
STARTCHAR char1060
ENCODING 1060
SWIDTH 576 0
DWIDTH 8 0
BBX 8 14 0 -3
BITMAP
00
10
7C
92
92
92
92
92
92
92
7C
10
00
00
ENDCHAR
STARTCHAR char1061
ENCODING 1061
SWIDTH 576 0
DWIDTH 8 0
BBX 8 14 0 -3
BITMAP
00
00
42
42
24
24
18
24
24
42
42
00
00
00
ENDCHAR
STARTCHAR char1062
ENCODING 1062
SWIDTH 576 0
DWIDTH 8 0
BBX 8 14 0 -3
BITMAP
00
00
42
42
42
42
42
42
42
42
3F
01
01
00
ENDCHAR
STARTCHAR char1063
ENCODING 1063
SWIDTH 576 0
DWIDTH 8 0
BBX 8 14 0 -3
BITMAP
00
00
42
42
42
42
3E
02
02
02
02
00
00
00
ENDCHAR
STARTCHAR char1064
ENCODING 1064
SWIDTH 576 0
DWIDTH 8 0
BBX 8 14 0 -3
BITMAP
00
00
92
92
92
92
92
92
92
92
7E
00
00
00
ENDCHAR
STARTCHAR char1065
ENCODING 1065
SWIDTH 576 0
DWIDTH 8 0
BBX 8 14 0 -3
BITMAP
00
00
92
92
92
92
92
92
92
92
7F
01
01
00
ENDCHAR
STARTCHAR char1066
ENCODING 1066
SWIDTH 576 0
DWIDTH 8 0
BBX 8 14 0 -3
BITMAP
00
C0
40
40
7C
42
42
42
42
42
7C
00
00
00
ENDCHAR
STARTCHAR char1067
ENCODING 1067
SWIDTH 576 0
DWIDTH 8 0
BBX 8 14 0 -3
BITMAP
00
82
82
82
F2
8A
8A
8A
8A
8A
F2
00
00
00
ENDCHAR
STARTCHAR char1068
ENCODING 1068
SWIDTH 576 0
DWIDTH 8 0
BBX 8 14 0 -3
BITMAP
00
40
40
40
7C
42
42
42
42
42
7C
00
00
00
ENDCHAR
STARTCHAR char1069
ENCODING 1069
SWIDTH 576 0
DWIDTH 8 0
BBX 8 14 0 -3
BITMAP
00
00
3C
42
02
02
1E
02
02
42
3C
00
00
00
ENDCHAR
STARTCHAR char1070
ENCODING 1070
SWIDTH 576 0
DWIDTH 8 0
BBX 8 14 0 -3
BITMAP
00
8C
92
92
92
92
F2
92
92
92
8C
00
00
00
ENDCHAR
STARTCHAR char1071
ENCODING 1071
SWIDTH 576 0
DWIDTH 8 0
BBX 8 14 0 -3
BITMAP
00
3E
42
42
42
42
3E
12
22
42
42
00
00
00
ENDCHAR
STARTCHAR char1072
ENCODING 1072
SWIDTH 576 0
DWIDTH 8 0
BBX 8 14 0 -3
BITMAP
00
00
00
00
3C
02
3E
42
42
46
3A
00
00
00
ENDCHAR
STARTCHAR char1073
ENCODING 1073
SWIDTH 576 0
DWIDTH 8 0
BBX 8 14 0 -3
BITMAP
00
3C
40
40
7C
42
42
42
42
42
7C
00
00
00
ENDCHAR
STARTCHAR char1074
ENCODING 1074
SWIDTH 576 0
DWIDTH 8 0
BBX 8 14 0 -3
BITMAP
00
38
44
44
48
7C
42
42
42
42
7C
00
00
00
ENDCHAR
STARTCHAR char1075
ENCODING 1075
SWIDTH 576 0
DWIDTH 8 0
BBX 8 14 0 -3
BITMAP
00
00
00
00
3C
02
02
3C
40
40
3C
00
00
00
ENDCHAR
STARTCHAR char1076
ENCODING 1076
SWIDTH 576 0
DWIDTH 8 0
BBX 8 14 0 -3
BITMAP
00
00
00
00
3E
42
42
42
42
46
3A
02
02
3C
ENDCHAR
STARTCHAR char1077
ENCODING 1077
SWIDTH 576 0
DWIDTH 8 0
BBX 8 14 0 -3
BITMAP
00
00
00
00
3C
42
42
7E
40
40
3C
00
00
00
ENDCHAR
STARTCHAR char1078
ENCODING 1078
SWIDTH 576 0
DWIDTH 8 0
BBX 8 14 0 -3
BITMAP
00
00
00
00
92
92
54
38
54
92
92
00
00
00
ENDCHAR
STARTCHAR char1079
ENCODING 1079
SWIDTH 576 0
DWIDTH 8 0
BBX 8 14 0 -3
BITMAP
00
00
00
00
3C
42
02
1C
02
42
3C
00
00
00
ENDCHAR
STARTCHAR char1080
ENCODING 1080
SWIDTH 576 0
DWIDTH 8 0
BBX 8 14 0 -3
BITMAP
00
00
00
00
42
42
42
42
42
46
3A
00
00
00
ENDCHAR
STARTCHAR char1081
ENCODING 1081
SWIDTH 576 0
DWIDTH 8 0
BBX 8 14 0 -3
BITMAP
00
24
18
00
42
42
42
42
42
46
3A
00
00
00
ENDCHAR
STARTCHAR char1082
ENCODING 1082
SWIDTH 576 0
DWIDTH 8 0
BBX 8 14 0 -3
BITMAP
00
00
00
00
42
44
48
70
48
44
42
00
00
00
ENDCHAR
STARTCHAR char1083
ENCODING 1083
SWIDTH 576 0
DWIDTH 8 0
BBX 8 14 0 -3
BITMAP
00
00
00
00
1E
22
22
22
22
22
42
00
00
00
ENDCHAR
STARTCHAR char1084
ENCODING 1084
SWIDTH 576 0
DWIDTH 8 0
BBX 8 14 0 -3
BITMAP
00
00
00
00
82
C6
AA
92
82
82
82
00
00
00
ENDCHAR
STARTCHAR char1085
ENCODING 1085
SWIDTH 576 0
DWIDTH 8 0
BBX 8 14 0 -3
BITMAP
00
00
00
00
42
42
42
7E
42
42
42
00
00
00
ENDCHAR
STARTCHAR char1086
ENCODING 1086
SWIDTH 576 0
DWIDTH 8 0
BBX 8 14 0 -3
BITMAP
00
00
00
00
3C
42
42
42
42
42
3C
00
00
00
ENDCHAR
STARTCHAR char1087
ENCODING 1087
SWIDTH 576 0
DWIDTH 8 0
BBX 8 14 0 -3
BITMAP
00
00
00
00
7E
42
42
42
42
42
42
00
00
00
ENDCHAR
STARTCHAR char1088
ENCODING 1088
SWIDTH 576 0
DWIDTH 8 0
BBX 8 14 0 -3
BITMAP
00
00
00
00
5C
62
42
42
42
42
7C
40
40
40
ENDCHAR
STARTCHAR char1089
ENCODING 1089
SWIDTH 576 0
DWIDTH 8 0
BBX 8 14 0 -3
BITMAP
00
00
00
00
3C
42
40
40
40
42
3C
00
00
00
ENDCHAR
STARTCHAR char1090
ENCODING 1090
SWIDTH 576 0
DWIDTH 8 0
BBX 8 14 0 -3
BITMAP
00
00
00
00
FE
10
10
10
10
10
10
00
00
00
ENDCHAR
STARTCHAR char1091
ENCODING 1091
SWIDTH 576 0
DWIDTH 8 0
BBX 8 14 0 -3
BITMAP
00
00
00
00
42
42
42
42
42
46
3A
02
02
3C
ENDCHAR
STARTCHAR char1092
ENCODING 1092
SWIDTH 576 0
DWIDTH 8 0
BBX 8 14 0 -3
BITMAP
00
00
00
10
7C
92
92
92
92
92
7C
10
00
00
ENDCHAR
STARTCHAR char1093
ENCODING 1093
SWIDTH 576 0
DWIDTH 8 0
BBX 8 14 0 -3
BITMAP
00
00
00
00
42
42
24
18
24
42
42
00
00
00
ENDCHAR
STARTCHAR char1094
ENCODING 1094
SWIDTH 576 0
DWIDTH 8 0
BBX 8 14 0 -3
BITMAP
00
00
00
00
42
42
42
42
42
42
3F
01
01
00
ENDCHAR
STARTCHAR char1095
ENCODING 1095
SWIDTH 576 0
DWIDTH 8 0
BBX 8 14 0 -3
BITMAP
00
00
00
00
42
42
42
3E
02
02
02
00
00
00
ENDCHAR
STARTCHAR char1096
ENCODING 1096
SWIDTH 576 0
DWIDTH 8 0
BBX 8 14 0 -3
BITMAP
00
00
00
00
92
92
92
92
92
92
7E
00
00
00
ENDCHAR
STARTCHAR char1097
ENCODING 1097
SWIDTH 576 0
DWIDTH 8 0
BBX 8 14 0 -3
BITMAP
00
00
00
00
92
92
92
92
92
92
7F
01
01
00
ENDCHAR
STARTCHAR char1098
ENCODING 1098
SWIDTH 576 0
DWIDTH 8 0
BBX 8 14 0 -3
BITMAP
00
00
00
00
60
20
3C
22
22
22
3C
00
00
00
ENDCHAR
STARTCHAR char1099
ENCODING 1099
SWIDTH 576 0
DWIDTH 8 0
BBX 8 14 0 -3
BITMAP
00
00
00
00
82
82
F2
8A
8A
8A
F2
00
00
00
ENDCHAR
STARTCHAR char1100
ENCODING 1100
SWIDTH 576 0
DWIDTH 8 0
BBX 8 14 0 -3
BITMAP
00
00
00
00
40
40
78
44
44
44
78
00
00
00
ENDCHAR
STARTCHAR char1101
ENCODING 1101
SWIDTH 576 0
DWIDTH 8 0
BBX 8 14 0 -3
BITMAP
00
00
00
00
3C
42
02
1E
02
42
3C
00
00
00
ENDCHAR
STARTCHAR char1102
ENCODING 1102
SWIDTH 576 0
DWIDTH 8 0
BBX 8 14 0 -3
BITMAP
00
00
00
00
8C
92
92
F2
92
92
8C
00
00
00
ENDCHAR
STARTCHAR char1103
ENCODING 1103
SWIDTH 576 0
DWIDTH 8 0
BBX 8 14 0 -3
BITMAP
00
00
00
00
3E
42
42
3E
12
22
42
00
00
00
ENDCHAR
STARTCHAR char1104
ENCODING 1104
SWIDTH 576 0
DWIDTH 8 0
BBX 8 14 0 -3
BITMAP
00
10
08
00
3C
42
42
7E
40
40
3C
00
00
00
ENDCHAR
STARTCHAR char1105
ENCODING 1105
SWIDTH 576 0
DWIDTH 8 0
BBX 8 14 0 -3
BITMAP
00
24
24
00
3C
42
42
7E
40
40
3C
00
00
00
ENDCHAR
STARTCHAR char1106
ENCODING 1106
SWIDTH 576 0
DWIDTH 8 0
BBX 8 14 0 -3
BITMAP
00
40
F8
40
7C
42
42
42
42
42
42
02
04
00
ENDCHAR
STARTCHAR char1107
ENCODING 1107
SWIDTH 576 0
DWIDTH 8 0
BBX 8 14 0 -3
BITMAP
00
08
10
00
3C
02
02
3C
40
40
3C
00
00
00
ENDCHAR
STARTCHAR char1108
ENCODING 1108
SWIDTH 576 0
DWIDTH 8 0
BBX 8 14 0 -3
BITMAP
00
00
00
00
3C
42
40
78
40
42
3C
00
00
00
ENDCHAR
STARTCHAR char1109
ENCODING 1109
SWIDTH 576 0
DWIDTH 8 0
BBX 8 14 0 -3
BITMAP
00
00
00
00
3E
40
40
3C
02
02
7C
00
00
00
ENDCHAR
STARTCHAR char1110
ENCODING 1110
SWIDTH 576 0
DWIDTH 8 0
BBX 8 14 0 -3
BITMAP
00
10
10
00
70
10
10
10
10
10
1C
00
00
00
ENDCHAR
STARTCHAR char1111
ENCODING 1111
SWIDTH 576 0
DWIDTH 8 0
BBX 8 14 0 -3
BITMAP
00
48
48
00
70
10
10
10
10
10
1C
00
00
00
ENDCHAR
STARTCHAR char1112
ENCODING 1112
SWIDTH 576 0
DWIDTH 8 0
BBX 8 14 0 -3
BITMAP
00
04
04
00
0C
04
04
04
04
04
04
04
04
38
ENDCHAR
STARTCHAR char1113
ENCODING 1113
SWIDTH 576 0
DWIDTH 8 0
BBX 8 14 0 -3
BITMAP
00
00
00
00
70
90
9C
92
92
92
9C
00
00
00
ENDCHAR
STARTCHAR char1114
ENCODING 1114
SWIDTH 576 0
DWIDTH 8 0
BBX 8 14 0 -3
BITMAP
00
00
00
00
90
90
9C
F2
92
92
9C
00
00
00
ENDCHAR
STARTCHAR char1115
ENCODING 1115
SWIDTH 576 0
DWIDTH 8 0
BBX 8 14 0 -3
BITMAP
00
40
F8
40
7C
42
42
42
42
42
42
00
00
00
ENDCHAR
STARTCHAR char1116
ENCODING 1116
SWIDTH 576 0
DWIDTH 8 0
BBX 8 14 0 -3
BITMAP
00
08
10
00
42
44
48
70
48
44
42
00
00
00
ENDCHAR
STARTCHAR char1117
ENCODING 1117
SWIDTH 576 0
DWIDTH 8 0
BBX 8 14 0 -3
BITMAP
00
10
08
00
42
42
42
42
42
46
3A
00
00
00
ENDCHAR
STARTCHAR char1118
ENCODING 1118
SWIDTH 576 0
DWIDTH 8 0
BBX 8 14 0 -3
BITMAP
00
24
18
00
42
42
42
42
42
46
3A
02
02
3C
ENDCHAR
STARTCHAR char1119
ENCODING 1119
SWIDTH 576 0
DWIDTH 8 0
BBX 8 14 0 -3
BITMAP
00
00
00
00
42
42
42
42
42
42
7E
18
18
00
ENDCHAR
STARTCHAR char1168
ENCODING 1168
SWIDTH 576 0
DWIDTH 8 0
BBX 8 14 0 -3
BITMAP
02
02
7E
40
40
40
40
40
40
40
40
00
00
00
ENDCHAR
STARTCHAR char1169
ENCODING 1169
SWIDTH 576 0
DWIDTH 8 0
BBX 8 14 0 -3
BITMAP
00
00
20
20
3C
02
02
3C
40
40
3C
00
00
00
ENDCHAR
STARTCHAR char1170
ENCODING 1170
SWIDTH 576 0
DWIDTH 8 0
BBX 8 14 0 -3
BITMAP
00
00
7E
40
40
40
F8
40
40
40
40
00
00
00
ENDCHAR
STARTCHAR char1171
ENCODING 1171
SWIDTH 576 0
DWIDTH 8 0
BBX 8 14 0 -3
BITMAP
00
00
00
00
7E
40
40
F8
40
40
40
00
00
00
ENDCHAR
STARTCHAR char1172
ENCODING 1172
SWIDTH 576 0
DWIDTH 8 0
BBX 8 14 0 -3
BITMAP
00
00
7E
40
40
40
7C
42
42
42
42
02
04
00
ENDCHAR
STARTCHAR char1173
ENCODING 1173
SWIDTH 576 0
DWIDTH 8 0
BBX 8 14 0 -3
BITMAP
00
00
00
00
7E
40
40
78
44
44
44
04
08
00
ENDCHAR
STARTCHAR char1174
ENCODING 1174
SWIDTH 576 0
DWIDTH 8 0
BBX 8 14 0 -3
BITMAP
00
00
92
92
92
54
38
54
92
92
93
01
01
00
ENDCHAR
STARTCHAR char1175
ENCODING 1175
SWIDTH 576 0
DWIDTH 8 0
BBX 8 14 0 -3
BITMAP
00
00
00
00
92
92
54
38
54
92
93
01
01
00
ENDCHAR
STARTCHAR char1176
ENCODING 1176
SWIDTH 576 0
DWIDTH 8 0
BBX 8 14 0 -3
BITMAP
00
00
3C
42
42
02
1C
02
42
42
3C
10
10
00
ENDCHAR
STARTCHAR char1177
ENCODING 1177
SWIDTH 576 0
DWIDTH 8 0
BBX 8 14 0 -3
BITMAP
00
00
00
00
3C
42
02
1C
02
42
3C
10
10
00
ENDCHAR
STARTCHAR char1178
ENCODING 1178
SWIDTH 576 0
DWIDTH 8 0
BBX 8 14 0 -3
BITMAP
00
00
42
44
48
50
60
50
48
44
43
01
01
00
ENDCHAR
STARTCHAR char1179
ENCODING 1179
SWIDTH 576 0
DWIDTH 8 0
BBX 8 14 0 -3
BITMAP
00
00
00
00
42
44
48
70
48
44
43
01
01
00
ENDCHAR
STARTCHAR char1180
ENCODING 1180
SWIDTH 576 0
DWIDTH 8 0
BBX 8 14 0 -3
BITMAP
00
00
42
54
58
50
70
50
58
54
42
00
00
00
ENDCHAR
STARTCHAR char1181
ENCODING 1181
SWIDTH 576 0
DWIDTH 8 0
BBX 8 14 0 -3
BITMAP
00
00
00
00
42
54
58
70
58
54
42
00
00
00
ENDCHAR
STARTCHAR char1184
ENCODING 1184
SWIDTH 576 0
DWIDTH 8 0
BBX 8 14 0 -3
BITMAP
00
00
C2
44
48
50
60
50
48
44
42
00
00
00
ENDCHAR
STARTCHAR char1185
ENCODING 1185
SWIDTH 576 0
DWIDTH 8 0
BBX 8 14 0 -3
BITMAP
00
00
00
00
C2
44
48
70
48
44
42
00
00
00
ENDCHAR
STARTCHAR char1186
ENCODING 1186
SWIDTH 576 0
DWIDTH 8 0
BBX 8 14 0 -3
BITMAP
00
00
42
42
42
42
7E
42
42
42
43
01
01
00
ENDCHAR
STARTCHAR char1187
ENCODING 1187
SWIDTH 576 0
DWIDTH 8 0
BBX 8 14 0 -3
BITMAP
00
00
00
00
42
42
42
7E
42
42
43
01
01
00
ENDCHAR
STARTCHAR char1188
ENCODING 1188
SWIDTH 576 0
DWIDTH 8 0
BBX 8 14 0 -3
BITMAP
00
00
47
44
44
44
7C
44
44
44
44
00
00
00
ENDCHAR
STARTCHAR char1189
ENCODING 1189
SWIDTH 576 0
DWIDTH 8 0
BBX 8 14 0 -3
BITMAP
00
00
00
00
47
44
44
7C
44
44
44
00
00
00
ENDCHAR
STARTCHAR char1194
ENCODING 1194
SWIDTH 576 0
DWIDTH 8 0
BBX 8 14 0 -3
BITMAP
00
00
3C
42
40
40
40
40
40
42
3C
10
10
00
ENDCHAR
STARTCHAR char1195
ENCODING 1195
SWIDTH 576 0
DWIDTH 8 0
BBX 8 14 0 -3
BITMAP
00
00
00
00
3C
42
40
40
40
42
3C
10
10
00
ENDCHAR
STARTCHAR char1198
ENCODING 1198
SWIDTH 576 0
DWIDTH 8 0
BBX 8 14 0 -3
BITMAP
00
00
82
82
44
44
28
10
10
10
10
00
00
00
ENDCHAR
STARTCHAR char1199
ENCODING 1199
SWIDTH 576 0
DWIDTH 8 0
BBX 8 14 0 -3
BITMAP
00
00
00
00
82
82
44
44
28
28
10
10
10
00
ENDCHAR
STARTCHAR char1200
ENCODING 1200
SWIDTH 576 0
DWIDTH 8 0
BBX 8 14 0 -3
BITMAP
00
00
82
82
44
44
28
10
7C
10
10
00
00
00
ENDCHAR
STARTCHAR char1201
ENCODING 1201
SWIDTH 576 0
DWIDTH 8 0
BBX 8 14 0 -3
BITMAP
00
00
00
00
82
82
44
44
28
28
10
7C
10
00
ENDCHAR
STARTCHAR char1202
ENCODING 1202
SWIDTH 576 0
DWIDTH 8 0
BBX 8 14 0 -3
BITMAP
00
00
42
42
24
24
18
24
24
42
43
01
01
00
ENDCHAR
STARTCHAR char1203
ENCODING 1203
SWIDTH 576 0
DWIDTH 8 0
BBX 8 14 0 -3
BITMAP
00
00
00
00
42
42
24
18
24
42
43
01
01
00
ENDCHAR
STARTCHAR char1206
ENCODING 1206
SWIDTH 576 0
DWIDTH 8 0
BBX 8 14 0 -3
BITMAP
00
00
42
42
42
42
3E
02
02
02
03
01
01
00
ENDCHAR
STARTCHAR char1207
ENCODING 1207
SWIDTH 576 0
DWIDTH 8 0
BBX 8 14 0 -3
BITMAP
00
00
00
00
42
42
42
3E
02
02
03
01
01
00
ENDCHAR
STARTCHAR char1208
ENCODING 1208
SWIDTH 576 0
DWIDTH 8 0
BBX 8 14 0 -3
BITMAP
00
00
42
42
52
52
3E
12
12
02
02
00
00
00
ENDCHAR
STARTCHAR char1209
ENCODING 1209
SWIDTH 576 0
DWIDTH 8 0
BBX 8 14 0 -3
BITMAP
00
00
00
00
42
42
52
3E
12
02
02
00
00
00
ENDCHAR
STARTCHAR char1210
ENCODING 1210
SWIDTH 576 0
DWIDTH 8 0
BBX 8 14 0 -3
BITMAP
00
40
40
40
40
5C
62
42
42
42
42
00
00
00
ENDCHAR
STARTCHAR char1211
ENCODING 1211
SWIDTH 576 0
DWIDTH 8 0
BBX 8 14 0 -3
BITMAP
00
00
00
00
40
40
7C
42
42
42
42
00
00
00
ENDCHAR
STARTCHAR char1232
ENCODING 1232
SWIDTH 576 0
DWIDTH 8 0
BBX 8 14 0 -3
BITMAP
24
18
00
3C
42
42
42
7E
42
42
42
00
00
00
ENDCHAR
STARTCHAR char1233
ENCODING 1233
SWIDTH 576 0
DWIDTH 8 0
BBX 8 14 0 -3
BITMAP
00
24
18
00
3C
02
3E
42
42
46
3A
00
00
00
ENDCHAR
STARTCHAR char1234
ENCODING 1234
SWIDTH 576 0
DWIDTH 8 0
BBX 8 14 0 -3
BITMAP
24
24
00
3C
42
42
42
7E
42
42
42
00
00
00
ENDCHAR
STARTCHAR char1235
ENCODING 1235
SWIDTH 576 0
DWIDTH 8 0
BBX 8 14 0 -3
BITMAP
00
24
24
00
3C
02
3E
42
42
46
3A
00
00
00
ENDCHAR
STARTCHAR char1236
ENCODING 1236
SWIDTH 576 0
DWIDTH 8 0
BBX 8 14 0 -3
BITMAP
00
00
7E
90
90
90
FC
90
90
90
9E
00
00
00
ENDCHAR
STARTCHAR char1237
ENCODING 1237
SWIDTH 576 0
DWIDTH 8 0
BBX 8 14 0 -3
BITMAP
00
00
00
00
6C
12
72
9E
90
90
6C
00
00
00
ENDCHAR
STARTCHAR char1238
ENCODING 1238
SWIDTH 576 0
DWIDTH 8 0
BBX 8 14 0 -3
BITMAP
24
18
00
7E
40
40
78
40
40
40
7E
00
00
00
ENDCHAR
STARTCHAR char1239
ENCODING 1239
SWIDTH 576 0
DWIDTH 8 0
BBX 8 14 0 -3
BITMAP
00
24
18
00
3C
42
42
7E
40
40
3C
00
00
00
ENDCHAR
STARTCHAR char1240
ENCODING 1240
SWIDTH 576 0
DWIDTH 8 0
BBX 8 14 0 -3
BITMAP
00
00
3C
42
02
02
7E
42
42
42
3C
00
00
00
ENDCHAR
STARTCHAR char1241
ENCODING 1241
SWIDTH 576 0
DWIDTH 8 0
BBX 8 14 0 -3
BITMAP
00
00
00
00
3C
02
02
7E
42
42
3C
00
00
00
ENDCHAR
STARTCHAR char1242
ENCODING 1242
SWIDTH 576 0
DWIDTH 8 0
BBX 8 14 0 -3
BITMAP
24
24
00
3C
42
02
02
7E
42
42
3C
00
00
00
ENDCHAR
STARTCHAR char1243
ENCODING 1243
SWIDTH 576 0
DWIDTH 8 0
BBX 8 14 0 -3
BITMAP
00
24
24
00
3C
02
02
7E
42
42
3C
00
00
00
ENDCHAR
STARTCHAR char1244
ENCODING 1244
SWIDTH 576 0
DWIDTH 8 0
BBX 8 14 0 -3
BITMAP
44
44
00
82
92
54
38
54
92
92
82
00
00
00
ENDCHAR
STARTCHAR char1245
ENCODING 1245
SWIDTH 576 0
DWIDTH 8 0
BBX 8 14 0 -3
BITMAP
00
44
44
00
92
92
54
38
54
92
92
00
00
00
ENDCHAR
STARTCHAR char1246
ENCODING 1246
SWIDTH 576 0
DWIDTH 8 0
BBX 8 14 0 -3
BITMAP
24
24
00
3C
42
42
02
1C
02
42
3C
00
00
00
ENDCHAR
STARTCHAR char1247
ENCODING 1247
SWIDTH 576 0
DWIDTH 8 0
BBX 8 14 0 -3
BITMAP
00
24
24
00
3C
42
02
1C
02
42
3C
00
00
00
ENDCHAR
STARTCHAR char1250
ENCODING 1250
SWIDTH 576 0
DWIDTH 8 0
BBX 8 14 0 -3
BITMAP
3C
00
42
46
46
4A
4A
52
52
62
62
00
00
00
ENDCHAR
STARTCHAR char1251
ENCODING 1251
SWIDTH 576 0
DWIDTH 8 0
BBX 8 14 0 -3
BITMAP
00
00
3C
00
42
42
42
42
42
46
3A
00
00
00
ENDCHAR
STARTCHAR char1252
ENCODING 1252
SWIDTH 576 0
DWIDTH 8 0
BBX 8 14 0 -3
BITMAP
24
24
00
46
46
4A
4A
52
52
62
62
00
00
00
ENDCHAR
STARTCHAR char1253
ENCODING 1253
SWIDTH 576 0
DWIDTH 8 0
BBX 8 14 0 -3
BITMAP
00
24
24
00
42
42
42
42
42
46
3A
00
00
00
ENDCHAR
STARTCHAR char1254
ENCODING 1254
SWIDTH 576 0
DWIDTH 8 0
BBX 8 14 0 -3
BITMAP
24
24
00
3C
42
42
42
42
42
42
3C
00
00
00
ENDCHAR
STARTCHAR char1255
ENCODING 1255
SWIDTH 576 0
DWIDTH 8 0
BBX 8 14 0 -3
BITMAP
00
24
24
00
3C
42
42
42
42
42
3C
00
00
00
ENDCHAR
STARTCHAR char1256
ENCODING 1256
SWIDTH 576 0
DWIDTH 8 0
BBX 8 14 0 -3
BITMAP
00
00
3C
42
42
42
7E
42
42
42
3C
00
00
00
ENDCHAR
STARTCHAR char1257
ENCODING 1257
SWIDTH 576 0
DWIDTH 8 0
BBX 8 14 0 -3
BITMAP
00
00
00
00
3C
42
42
7E
42
42
3C
00
00
00
ENDCHAR
STARTCHAR char1258
ENCODING 1258
SWIDTH 576 0
DWIDTH 8 0
BBX 8 14 0 -3
BITMAP
24
24
00
3C
42
42
42
7E
42
42
3C
00
00
00
ENDCHAR
STARTCHAR char1259
ENCODING 1259
SWIDTH 576 0
DWIDTH 8 0
BBX 8 14 0 -3
BITMAP
00
24
24
00
3C
42
42
7E
42
42
3C
00
00
00
ENDCHAR
STARTCHAR char1260
ENCODING 1260
SWIDTH 576 0
DWIDTH 8 0
BBX 8 14 0 -3
BITMAP
24
24
00
3C
42
02
02
1E
02
42
3C
00
00
00
ENDCHAR
STARTCHAR char1261
ENCODING 1261
SWIDTH 576 0
DWIDTH 8 0
BBX 8 14 0 -3
BITMAP
00
24
24
00
3C
42
02
1E
02
42
3C
00
00
00
ENDCHAR
STARTCHAR char1262
ENCODING 1262
SWIDTH 576 0
DWIDTH 8 0
BBX 8 14 0 -3
BITMAP
3C
00
42
42
42
42
3E
02
02
02
3C
00
00
00
ENDCHAR
STARTCHAR char1263
ENCODING 1263
SWIDTH 576 0
DWIDTH 8 0
BBX 8 14 0 -3
BITMAP
00
00
3C
00
42
42
42
42
42
46
3A
02
02
3C
ENDCHAR
STARTCHAR char1264
ENCODING 1264
SWIDTH 576 0
DWIDTH 8 0
BBX 8 14 0 -3
BITMAP
24
24
00
42
42
42
3E
02
02
02
3C
00
00
00
ENDCHAR
STARTCHAR char1265
ENCODING 1265
SWIDTH 576 0
DWIDTH 8 0
BBX 8 14 0 -3
BITMAP
00
24
24
00
42
42
42
42
42
46
3A
02
02
3C
ENDCHAR
STARTCHAR char1266
ENCODING 1266
SWIDTH 576 0
DWIDTH 8 0
BBX 8 14 0 -3
BITMAP
12
24
00
42
42
42
3E
02
02
02
3C
00
00
00
ENDCHAR
STARTCHAR char1267
ENCODING 1267
SWIDTH 576 0
DWIDTH 8 0
BBX 8 14 0 -3
BITMAP
00
12
24
00
42
42
42
42
42
46
3A
02
02
3C
ENDCHAR
STARTCHAR char1268
ENCODING 1268
SWIDTH 576 0
DWIDTH 8 0
BBX 8 14 0 -3
BITMAP
24
24
00
42
42
42
42
3E
02
02
02
00
00
00
ENDCHAR
STARTCHAR char1269
ENCODING 1269
SWIDTH 576 0
DWIDTH 8 0
BBX 8 14 0 -3
BITMAP
00
24
24
00
42
42
42
3E
02
02
02
00
00
00
ENDCHAR
STARTCHAR char1272
ENCODING 1272
SWIDTH 576 0
DWIDTH 8 0
BBX 8 14 0 -3
BITMAP
48
48
00
82
82
82
F2
8A
8A
8A
F2
00
00
00
ENDCHAR
STARTCHAR char1273
ENCODING 1273
SWIDTH 576 0
DWIDTH 8 0
BBX 8 14 0 -3
BITMAP
00
48
48
00
82
82
F2
8A
8A
8A
F2
00
00
00
ENDCHAR
STARTCHAR char7732
ENCODING 7732
SWIDTH 576 0
DWIDTH 8 0
BBX 8 14 0 -3
BITMAP
00
00
42
44
48
50
60
50
48
44
42
00
3C
00
ENDCHAR
STARTCHAR char7733
ENCODING 7733
SWIDTH 576 0
DWIDTH 8 0
BBX 8 14 0 -3
BITMAP
00
40
40
40
40
44
48
70
48
44
42
00
3C
00
ENDCHAR
STARTCHAR char7864
ENCODING 7864
SWIDTH 576 0
DWIDTH 8 0
BBX 8 14 0 -3
BITMAP
00
00
7E
40
40
40
78
40
40
40
7E
10
10
00
ENDCHAR
STARTCHAR char7865
ENCODING 7865
SWIDTH 576 0
DWIDTH 8 0
BBX 8 14 0 -3
BITMAP
00
00
00
00
3C
42
42
7E
40
40
3C
10
10
00
ENDCHAR
STARTCHAR char7868
ENCODING 7868
SWIDTH 576 0
DWIDTH 8 0
BBX 8 14 0 -3
BITMAP
32
4C
00
7E
40
40
40
78
40
40
7E
00
00
00
ENDCHAR
STARTCHAR char7869
ENCODING 7869
SWIDTH 576 0
DWIDTH 8 0
BBX 8 14 0 -3
BITMAP
00
32
4C
00
3C
42
42
7E
40
40
3C
00
00
00
ENDCHAR
STARTCHAR char7884
ENCODING 7884
SWIDTH 576 0
DWIDTH 8 0
BBX 8 14 0 -3
BITMAP
00
00
3C
42
42
42
42
42
42
42
3C
10
10
00
ENDCHAR
STARTCHAR char7885
ENCODING 7885
SWIDTH 576 0
DWIDTH 8 0
BBX 8 14 0 -3
BITMAP
00
00
00
00
3C
42
42
42
42
42
3C
10
10
00
ENDCHAR
STARTCHAR char7928
ENCODING 7928
SWIDTH 576 0
DWIDTH 8 0
BBX 8 14 0 -3
BITMAP
64
98
00
82
82
44
44
28
10
10
10
00
00
00
ENDCHAR
STARTCHAR char7929
ENCODING 7929
SWIDTH 576 0
DWIDTH 8 0
BBX 8 14 0 -3
BITMAP
00
32
4C
00
42
42
42
42
42
46
3A
02
02
3C
ENDCHAR
STARTCHAR char8192
ENCODING 8192
SWIDTH 576 0
DWIDTH 8 0
BBX 8 14 0 -3
BITMAP
00
00
00
00
00
00
00
00
00
00
00
00
00
00
ENDCHAR
STARTCHAR char8193
ENCODING 8193
SWIDTH 576 0
DWIDTH 8 0
BBX 8 14 0 -3
BITMAP
00
00
00
00
00
00
00
00
00
00
00
00
00
00
ENDCHAR
STARTCHAR char8194
ENCODING 8194
SWIDTH 576 0
DWIDTH 8 0
BBX 8 14 0 -3
BITMAP
00
00
00
00
00
00
00
00
00
00
00
00
00
00
ENDCHAR
STARTCHAR char8195
ENCODING 8195
SWIDTH 576 0
DWIDTH 8 0
BBX 8 14 0 -3
BITMAP
00
00
00
00
00
00
00
00
00
00
00
00
00
00
ENDCHAR
STARTCHAR char8196
ENCODING 8196
SWIDTH 576 0
DWIDTH 8 0
BBX 8 14 0 -3
BITMAP
00
00
00
00
00
00
00
00
00
00
00
00
00
00
ENDCHAR
STARTCHAR char8197
ENCODING 8197
SWIDTH 576 0
DWIDTH 8 0
BBX 8 14 0 -3
BITMAP
00
00
00
00
00
00
00
00
00
00
00
00
00
00
ENDCHAR
STARTCHAR char8198
ENCODING 8198
SWIDTH 576 0
DWIDTH 8 0
BBX 8 14 0 -3
BITMAP
00
00
00
00
00
00
00
00
00
00
00
00
00
00
ENDCHAR
STARTCHAR char8199
ENCODING 8199
SWIDTH 576 0
DWIDTH 8 0
BBX 8 14 0 -3
BITMAP
00
00
00
00
00
00
00
00
00
00
00
00
00
00
ENDCHAR
STARTCHAR char8200
ENCODING 8200
SWIDTH 576 0
DWIDTH 8 0
BBX 8 14 0 -3
BITMAP
00
00
00
00
00
00
00
00
00
00
00
00
00
00
ENDCHAR
STARTCHAR char8201
ENCODING 8201
SWIDTH 576 0
DWIDTH 8 0
BBX 8 14 0 -3
BITMAP
00
00
00
00
00
00
00
00
00
00
00
00
00
00
ENDCHAR
STARTCHAR char8202
ENCODING 8202
SWIDTH 576 0
DWIDTH 8 0
BBX 8 14 0 -3
BITMAP
00
00
00
00
00
00
00
00
00
00
00
00
00
00
ENDCHAR
STARTCHAR char8208
ENCODING 8208
SWIDTH 576 0
DWIDTH 8 0
BBX 8 14 0 -3
BITMAP
00
00
00
00
00
00
00
3C
00
00
00
00
00
00
ENDCHAR
STARTCHAR char8209
ENCODING 8209
SWIDTH 576 0
DWIDTH 8 0
BBX 8 14 0 -3
BITMAP
00
00
00
00
00
00
00
3C
00
00
00
00
00
00
ENDCHAR
STARTCHAR char8210
ENCODING 8210
SWIDTH 576 0
DWIDTH 8 0
BBX 8 14 0 -3
BITMAP
00
00
00
00
00
00
00
7E
00
00
00
00
00
00
ENDCHAR
STARTCHAR char8211
ENCODING 8211
SWIDTH 576 0
DWIDTH 8 0
BBX 8 14 0 -3
BITMAP
00
00
00
00
00
00
00
7E
00
00
00
00
00
00
ENDCHAR
STARTCHAR char8212
ENCODING 8212
SWIDTH 576 0
DWIDTH 8 0
BBX 8 14 0 -3
BITMAP
00
00
00
00
00
00
00
FE
00
00
00
00
00
00
ENDCHAR
STARTCHAR char8213
ENCODING 8213
SWIDTH 576 0
DWIDTH 8 0
BBX 8 14 0 -3
BITMAP
00
00
00
00
00
00
00
FE
00
00
00
00
00
00
ENDCHAR
STARTCHAR char8214
ENCODING 8214
SWIDTH 576 0
DWIDTH 8 0
BBX 8 14 0 -3
BITMAP
00
00
28
28
28
28
28
28
28
28
28
28
00
00
ENDCHAR
STARTCHAR char8215
ENCODING 8215
SWIDTH 576 0
DWIDTH 8 0
BBX 8 14 0 -3
BITMAP
00
00
00
00
00
00
00
00
00
00
00
FF
00
FF
ENDCHAR
STARTCHAR char8216
ENCODING 8216
SWIDTH 576 0
DWIDTH 8 0
BBX 8 14 0 -3
BITMAP
00
08
10
10
00
00
00
00
00
00
00
00
00
00
ENDCHAR
STARTCHAR char8217
ENCODING 8217
SWIDTH 576 0
DWIDTH 8 0
BBX 8 14 0 -3
BITMAP
00
08
08
10
00
00
00
00
00
00
00
00
00
00
ENDCHAR
STARTCHAR char8218
ENCODING 8218
SWIDTH 576 0
DWIDTH 8 0
BBX 8 14 0 -3
BITMAP
00
00
00
00
00
00
00
00
00
00
08
08
10
00
ENDCHAR
STARTCHAR char8220
ENCODING 8220
SWIDTH 576 0
DWIDTH 8 0
BBX 8 14 0 -3
BITMAP
00
12
24
24
00
00
00
00
00
00
00
00
00
00
ENDCHAR
STARTCHAR char8221
ENCODING 8221
SWIDTH 576 0
DWIDTH 8 0
BBX 8 14 0 -3
BITMAP
00
12
12
24
00
00
00
00
00
00
00
00
00
00
ENDCHAR
STARTCHAR char8222
ENCODING 8222
SWIDTH 576 0
DWIDTH 8 0
BBX 8 14 0 -3
BITMAP
00
00
00
00
00
00
00
00
00
00
24
24
48
00
ENDCHAR
STARTCHAR char8224
ENCODING 8224
SWIDTH 576 0
DWIDTH 8 0
BBX 8 14 0 -3
BITMAP
00
00
10
10
7C
10
10
10
10
10
10
10
00
00
ENDCHAR
STARTCHAR char8225
ENCODING 8225
SWIDTH 576 0
DWIDTH 8 0
BBX 8 14 0 -3
BITMAP
00
00
10
10
7C
10
10
10
10
7C
10
10
00
00
ENDCHAR
STARTCHAR char8226
ENCODING 8226
SWIDTH 576 0
DWIDTH 8 0
BBX 8 14 0 -3
BITMAP
00
00
00
00
00
18
3C
3C
18
00
00
00
00
00
ENDCHAR
STARTCHAR char8230
ENCODING 8230
SWIDTH 576 0
DWIDTH 8 0
BBX 8 14 0 -3
BITMAP
00
00
00
00
00
00
00
00
00
92
92
00
00
00
ENDCHAR
STARTCHAR char8240
ENCODING 8240
SWIDTH 576 0
DWIDTH 8 0
BBX 8 14 0 -3
BITMAP
00
00
48
A8
50
10
20
20
40
54
AA
94
00
00
ENDCHAR
STARTCHAR char8242
ENCODING 8242
SWIDTH 576 0
DWIDTH 8 0
BBX 8 14 0 -3
BITMAP
00
10
10
10
10
00
00
00
00
00
00
00
00
00
ENDCHAR
STARTCHAR char8243
ENCODING 8243
SWIDTH 576 0
DWIDTH 8 0
BBX 8 14 0 -3
BITMAP
00
24
24
24
24
00
00
00
00
00
00
00
00
00
ENDCHAR
STARTCHAR char8249
ENCODING 8249
SWIDTH 576 0
DWIDTH 8 0
BBX 8 14 0 -3
BITMAP
00
00
00
00
04
08
10
20
10
08
04
00
00
00
ENDCHAR
STARTCHAR char8250
ENCODING 8250
SWIDTH 576 0
DWIDTH 8 0
BBX 8 14 0 -3
BITMAP
00
00
00
00
20
10
08
04
08
10
20
00
00
00
ENDCHAR
STARTCHAR char8252
ENCODING 8252
SWIDTH 576 0
DWIDTH 8 0
BBX 8 14 0 -3
BITMAP
00
24
24
24
24
24
24
24
00
24
24
00
00
00
ENDCHAR
STARTCHAR char8254
ENCODING 8254
SWIDTH 576 0
DWIDTH 8 0
BBX 8 14 0 -3
BITMAP
7E
00
00
00
00
00
00
00
00
00
00
00
00
00
ENDCHAR
STARTCHAR char8319
ENCODING 8319
SWIDTH 576 0
DWIDTH 8 0
BBX 8 14 0 -3
BITMAP
00
38
24
24
24
24
00
00
00
00
00
00
00
00
ENDCHAR
STARTCHAR char8359
ENCODING 8359
SWIDTH 576 0
DWIDTH 8 0
BBX 8 14 0 -3
BITMAP
00
00
F0
88
88
88
F4
84
8E
84
82
00
00
00
ENDCHAR
STARTCHAR char8364
ENCODING 8364
SWIDTH 576 0
DWIDTH 8 0
BBX 8 14 0 -3
BITMAP
00
00
1C
22
40
F8
40
F8
40
22
1C
00
00
00
ENDCHAR
STARTCHAR char8366
ENCODING 8366
SWIDTH 576 0
DWIDTH 8 0
BBX 8 14 0 -3
BITMAP
00
00
FE
10
10
1C
70
1C
70
10
10
00
00
00
ENDCHAR
STARTCHAR char8462
ENCODING 8462
SWIDTH 576 0
DWIDTH 8 0
BBX 8 14 0 -3
BITMAP
00
00
40
40
40
5C
62
42
42
42
42
00
00
00
ENDCHAR
STARTCHAR char8463
ENCODING 8463
SWIDTH 576 0
DWIDTH 8 0
BBX 8 14 0 -3
BITMAP
00
00
40
F8
40
5C
62
42
42
42
42
00
00
00
ENDCHAR
STARTCHAR char8470
ENCODING 8470
SWIDTH 576 0
DWIDTH 8 0
BBX 8 14 0 -3
BITMAP
00
96
96
96
D0
F0
F0
B0
96
90
96
00
00
00
ENDCHAR
STARTCHAR char8482
ENCODING 8482
SWIDTH 576 0
DWIDTH 8 0
BBX 8 14 0 -3
BITMAP
00
00
FB
55
55
51
00
00
00
00
00
00
00
00
ENDCHAR
STARTCHAR char8486
ENCODING 8486
SWIDTH 576 0
DWIDTH 8 0
BBX 8 14 0 -3
BITMAP
00
00
3C
42
42
42
42
24
24
24
66
00
00
00
ENDCHAR
STARTCHAR char8592
ENCODING 8592
SWIDTH 576 0
DWIDTH 8 0
BBX 8 14 0 -3
BITMAP
00
00
00
00
20
40
FE
40
20
00
00
00
00
00
ENDCHAR
STARTCHAR char8593
ENCODING 8593
SWIDTH 576 0
DWIDTH 8 0
BBX 8 14 0 -3
BITMAP
00
00
10
38
54
10
10
10
10
10
10
10
00
00
ENDCHAR
STARTCHAR char8594
ENCODING 8594
SWIDTH 576 0
DWIDTH 8 0
BBX 8 14 0 -3
BITMAP
00
00
00
00
08
04
FE
04
08
00
00
00
00
00
ENDCHAR
STARTCHAR char8595
ENCODING 8595
SWIDTH 576 0
DWIDTH 8 0
BBX 8 14 0 -3
BITMAP
00
00
10
10
10
10
10
10
10
54
38
10
00
00
ENDCHAR
STARTCHAR char8596
ENCODING 8596
SWIDTH 576 0
DWIDTH 8 0
BBX 8 14 0 -3
BITMAP
00
00
00
00
24
42
FF
42
24
00
00
00
00
00
ENDCHAR
STARTCHAR char8597
ENCODING 8597
SWIDTH 576 0
DWIDTH 8 0
BBX 8 14 0 -3
BITMAP
00
00
10
38
54
10
10
10
10
54
38
10
00
00
ENDCHAR
STARTCHAR char8616
ENCODING 8616
SWIDTH 576 0
DWIDTH 8 0
BBX 8 14 0 -3
BITMAP
00
00
10
38
54
10
10
10
54
38
10
7C
00
00
ENDCHAR
STARTCHAR char8629
ENCODING 8629
SWIDTH 576 0
DWIDTH 8 0
BBX 8 14 0 -3
BITMAP
00
00
02
02
02
02
02
22
42
FE
40
20
00
00
ENDCHAR
STARTCHAR char8656
ENCODING 8656
SWIDTH 576 0
DWIDTH 8 0
BBX 8 14 0 -3
BITMAP
00
00
00
00
20
7E
C0
7E
20
00
00
00
00
00
ENDCHAR
STARTCHAR char8657
ENCODING 8657
SWIDTH 576 0
DWIDTH 8 0
BBX 8 14 0 -3
BITMAP
00
00
10
38
6C
28
28
28
28
28
28
28
00
00
ENDCHAR
STARTCHAR char8658
ENCODING 8658
SWIDTH 576 0
DWIDTH 8 0
BBX 8 14 0 -3
BITMAP
00
00
00
00
08
FC
06
FC
08
00
00
00
00
00
ENDCHAR
STARTCHAR char8659
ENCODING 8659
SWIDTH 576 0
DWIDTH 8 0
BBX 8 14 0 -3
BITMAP
00
00
28
28
28
28
28
28
28
6C
38
10
00
00
ENDCHAR
STARTCHAR char8660
ENCODING 8660
SWIDTH 576 0
DWIDTH 8 0
BBX 8 14 0 -3
BITMAP
00
00
00
00
24
7E
C3
7E
24
00
00
00
00
00
ENDCHAR
STARTCHAR char8661
ENCODING 8661
SWIDTH 576 0
DWIDTH 8 0
BBX 8 14 0 -3
BITMAP
00
00
10
38
6C
28
28
28
28
6C
38
10
00
00
ENDCHAR
STARTCHAR char8707
ENCODING 8707
SWIDTH 576 0
DWIDTH 8 0
BBX 8 14 0 -3
BITMAP
00
00
7E
02
02
02
7E
02
02
02
7E
00
00
00
ENDCHAR
STARTCHAR char8709
ENCODING 8709
SWIDTH 576 0
DWIDTH 8 0
BBX 8 14 0 -3
BITMAP
00
02
04
7C
8A
92
92
A2
7C
40
80
00
00
00
ENDCHAR
STARTCHAR char8710
ENCODING 8710
SWIDTH 576 0
DWIDTH 8 0
BBX 8 14 0 -3
BITMAP
00
10
10
28
28
44
44
44
82
82
FE
00
00
00
ENDCHAR
STARTCHAR char8712
ENCODING 8712
SWIDTH 576 0
DWIDTH 8 0
BBX 8 14 0 -3
BITMAP
00
00
1E
20
40
40
7E
40
40
20
1E
00
00
00
ENDCHAR
STARTCHAR char8714
ENCODING 8714
SWIDTH 576 0
DWIDTH 8 0
BBX 8 14 0 -3
BITMAP
00
00
00
1E
20
40
7E
40
20
1E
00
00
00
00
ENDCHAR
STARTCHAR char8722
ENCODING 8722
SWIDTH 576 0
DWIDTH 8 0
BBX 8 14 0 -3
BITMAP
00
00
00
00
00
00
00
7E
00
00
00
00
00
00
ENDCHAR
STARTCHAR char8729
ENCODING 8729
SWIDTH 576 0
DWIDTH 8 0
BBX 8 14 0 -3
BITMAP
00
00
00
00
00
00
18
18
00
00
00
00
00
00
ENDCHAR
STARTCHAR char8730
ENCODING 8730
SWIDTH 576 0
DWIDTH 8 0
BBX 8 14 0 -3
BITMAP
00
07
04
04
04
04
44
44
44
24
14
0C
00
00
ENDCHAR
STARTCHAR char8734
ENCODING 8734
SWIDTH 576 0
DWIDTH 8 0
BBX 8 14 0 -3
BITMAP
00
00
00
00
00
6C
92
92
92
6C
00
00
00
00
ENDCHAR
STARTCHAR char8735
ENCODING 8735
SWIDTH 576 0
DWIDTH 8 0
BBX 8 14 0 -3
BITMAP
00
00
00
00
40
40
40
40
40
7E
00
00
00
00
ENDCHAR
STARTCHAR char8743
ENCODING 8743
SWIDTH 576 0
DWIDTH 8 0
BBX 8 14 0 -3
BITMAP
00
00
00
10
10
28
28
44
44
82
82
00
00
00
ENDCHAR
STARTCHAR char8744
ENCODING 8744
SWIDTH 576 0
DWIDTH 8 0
BBX 8 14 0 -3
BITMAP
00
00
00
82
82
44
44
28
28
10
10
00
00
00
ENDCHAR
STARTCHAR char8745
ENCODING 8745
SWIDTH 576 0
DWIDTH 8 0
BBX 8 14 0 -3
BITMAP
00
00
00
3C
42
42
42
42
42
42
42
00
00
00
ENDCHAR
STARTCHAR char8746
ENCODING 8746
SWIDTH 576 0
DWIDTH 8 0
BBX 8 14 0 -3
BITMAP
00
00
00
42
42
42
42
42
42
42
3C
00
00
00
ENDCHAR
STARTCHAR char8776
ENCODING 8776
SWIDTH 576 0
DWIDTH 8 0
BBX 8 14 0 -3
BITMAP
00
00
00
00
00
32
4C
00
32
4C
00
00
00
00
ENDCHAR
STARTCHAR char8800
ENCODING 8800
SWIDTH 576 0
DWIDTH 8 0
BBX 8 14 0 -3
BITMAP
00
00
00
00
02
7E
08
10
7E
40
00
00
00
00
ENDCHAR
STARTCHAR char8801
ENCODING 8801
SWIDTH 576 0
DWIDTH 8 0
BBX 8 14 0 -3
BITMAP
00
00
00
00
7E
00
00
7E
00
00
7E
00
00
00
ENDCHAR
STARTCHAR char8804
ENCODING 8804
SWIDTH 576 0
DWIDTH 8 0
BBX 8 14 0 -3
BITMAP
00
00
04
08
10
20
10
08
04
00
3E
00
00
00
ENDCHAR
STARTCHAR char8805
ENCODING 8805
SWIDTH 576 0
DWIDTH 8 0
BBX 8 14 0 -3
BITMAP
00
00
20
10
08
04
08
10
20
00
7C
00
00
00
ENDCHAR
STARTCHAR char8962
ENCODING 8962
SWIDTH 576 0
DWIDTH 8 0
BBX 8 14 0 -3
BITMAP
00
00
00
10
28
44
82
82
82
FE
00
00
00
00
ENDCHAR
STARTCHAR char8976
ENCODING 8976
SWIDTH 576 0
DWIDTH 8 0
BBX 8 14 0 -3
BITMAP
00
00
00
00
00
7E
40
40
40
00
00
00
00
00
ENDCHAR
STARTCHAR char8992
ENCODING 8992
SWIDTH 576 0
DWIDTH 8 0
BBX 8 14 0 -3
BITMAP
00
00
0C
12
12
10
10
10
10
10
10
10
10
10
ENDCHAR
STARTCHAR char8993
ENCODING 8993
SWIDTH 576 0
DWIDTH 8 0
BBX 8 14 0 -3
BITMAP
10
10
10
10
10
10
10
10
10
90
90
60
00
00
ENDCHAR
STARTCHAR char9146
ENCODING 9146
SWIDTH 576 0
DWIDTH 8 0
BBX 8 14 0 -3
BITMAP
FF
00
00
00
00
00
00
00
00
00
00
00
00
00
ENDCHAR
STARTCHAR char9147
ENCODING 9147
SWIDTH 576 0
DWIDTH 8 0
BBX 8 14 0 -3
BITMAP
00
00
00
FF
00
00
00
00
00
00
00
00
00
00
ENDCHAR
STARTCHAR char9148
ENCODING 9148
SWIDTH 576 0
DWIDTH 8 0
BBX 8 14 0 -3
BITMAP
00
00
00
00
00
00
00
00
00
00
FF
00
00
00
ENDCHAR
STARTCHAR char9149
ENCODING 9149
SWIDTH 576 0
DWIDTH 8 0
BBX 8 14 0 -3
BITMAP
00
00
00
00
00
00
00
00
00
00
00
00
00
FF
ENDCHAR
STARTCHAR char9225
ENCODING 9225
SWIDTH 576 0
DWIDTH 8 0
BBX 8 14 0 -3
BITMAP
00
88
88
F8
88
88
00
1F
04
04
04
04
00
00
ENDCHAR
STARTCHAR char9226
ENCODING 9226
SWIDTH 576 0
DWIDTH 8 0
BBX 8 14 0 -3
BITMAP
00
80
80
80
80
F8
00
1F
10
1C
10
10
00
00
ENDCHAR
STARTCHAR char9227
ENCODING 9227
SWIDTH 576 0
DWIDTH 8 0
BBX 8 14 0 -3
BITMAP
00
88
88
50
50
20
00
1F
04
04
04
04
00
00
ENDCHAR
STARTCHAR char9228
ENCODING 9228
SWIDTH 576 0
DWIDTH 8 0
BBX 8 14 0 -3
BITMAP
00
F8
80
E0
80
80
00
1F
10
1C
10
10
00
00
ENDCHAR
STARTCHAR char9229
ENCODING 9229
SWIDTH 576 0
DWIDTH 8 0
BBX 8 14 0 -3
BITMAP
00
70
88
80
88
70
00
1E
11
1E
12
11
00
00
ENDCHAR
STARTCHAR char9252
ENCODING 9252
SWIDTH 576 0
DWIDTH 8 0
BBX 8 14 0 -3
BITMAP
00
88
C8
A8
98
88
00
10
10
10
10
1F
00
00
ENDCHAR
STARTCHAR char9472
ENCODING 9472
SWIDTH 576 0
DWIDTH 8 0
BBX 8 14 0 -3
BITMAP
00
00
00
00
00
00
FF
00
00
00
00
00
00
00
ENDCHAR
STARTCHAR char9473
ENCODING 9473
SWIDTH 576 0
DWIDTH 8 0
BBX 8 14 0 -3
BITMAP
00
00
00
00
00
00
FF
FF
00
00
00
00
00
00
ENDCHAR
STARTCHAR char9474
ENCODING 9474
SWIDTH 576 0
DWIDTH 8 0
BBX 8 14 0 -3
BITMAP
10
10
10
10
10
10
10
10
10
10
10
10
10
10
ENDCHAR
STARTCHAR char9475
ENCODING 9475
SWIDTH 576 0
DWIDTH 8 0
BBX 8 14 0 -3
BITMAP
18
18
18
18
18
18
18
18
18
18
18
18
18
18
ENDCHAR
STARTCHAR char9480
ENCODING 9480
SWIDTH 576 0
DWIDTH 8 0
BBX 8 14 0 -3
BITMAP
00
00
00
00
00
00
AA
00
00
00
00
00
00
00
ENDCHAR
STARTCHAR char9481
ENCODING 9481
SWIDTH 576 0
DWIDTH 8 0
BBX 8 14 0 -3
BITMAP
00
00
00
00
00
00
AA
AA
00
00
00
00
00
00
ENDCHAR
STARTCHAR char9482
ENCODING 9482
SWIDTH 576 0
DWIDTH 8 0
BBX 8 14 0 -3
BITMAP
10
10
10
00
10
10
00
10
10
10
00
10
10
00
ENDCHAR
STARTCHAR char9483
ENCODING 9483
SWIDTH 576 0
DWIDTH 8 0
BBX 8 14 0 -3
BITMAP
18
18
18
00
18
18
00
18
18
18
00
18
18
00
ENDCHAR
STARTCHAR char9484
ENCODING 9484
SWIDTH 576 0
DWIDTH 8 0
BBX 8 14 0 -3
BITMAP
00
00
00
00
00
00
1F
10
10
10
10
10
10
10
ENDCHAR
STARTCHAR char9485
ENCODING 9485
SWIDTH 576 0
DWIDTH 8 0
BBX 8 14 0 -3
BITMAP
00
00
00
00
00
00
1F
1F
10
10
10
10
10
10
ENDCHAR
STARTCHAR char9486
ENCODING 9486
SWIDTH 576 0
DWIDTH 8 0
BBX 8 14 0 -3
BITMAP
00
00
00
00
00
00
1F
18
18
18
18
18
18
18
ENDCHAR
STARTCHAR char9487
ENCODING 9487
SWIDTH 576 0
DWIDTH 8 0
BBX 8 14 0 -3
BITMAP
00
00
00
00
00
00
1F
1F
18
18
18
18
18
18
ENDCHAR
STARTCHAR char9488
ENCODING 9488
SWIDTH 576 0
DWIDTH 8 0
BBX 8 14 0 -3
BITMAP
00
00
00
00
00
00
F0
10
10
10
10
10
10
10
ENDCHAR
STARTCHAR char9489
ENCODING 9489
SWIDTH 576 0
DWIDTH 8 0
BBX 8 14 0 -3
BITMAP
00
00
00
00
00
00
F0
F0
10
10
10
10
10
10
ENDCHAR
STARTCHAR char9490
ENCODING 9490
SWIDTH 576 0
DWIDTH 8 0
BBX 8 14 0 -3
BITMAP
00
00
00
00
00
00
F8
18
18
18
18
18
18
18
ENDCHAR
STARTCHAR char9491
ENCODING 9491
SWIDTH 576 0
DWIDTH 8 0
BBX 8 14 0 -3
BITMAP
00
00
00
00
00
00
F8
F8
18
18
18
18
18
18
ENDCHAR
STARTCHAR char9492
ENCODING 9492
SWIDTH 576 0
DWIDTH 8 0
BBX 8 14 0 -3
BITMAP
10
10
10
10
10
10
1F
00
00
00
00
00
00
00
ENDCHAR
STARTCHAR char9493
ENCODING 9493
SWIDTH 576 0
DWIDTH 8 0
BBX 8 14 0 -3
BITMAP
10
10
10
10
10
10
1F
1F
00
00
00
00
00
00
ENDCHAR
STARTCHAR char9494
ENCODING 9494
SWIDTH 576 0
DWIDTH 8 0
BBX 8 14 0 -3
BITMAP
18
18
18
18
18
18
1F
00
00
00
00
00
00
00
ENDCHAR
STARTCHAR char9495
ENCODING 9495
SWIDTH 576 0
DWIDTH 8 0
BBX 8 14 0 -3
BITMAP
18
18
18
18
18
18
1F
1F
00
00
00
00
00
00
ENDCHAR
STARTCHAR char9496
ENCODING 9496
SWIDTH 576 0
DWIDTH 8 0
BBX 8 14 0 -3
BITMAP
10
10
10
10
10
10
F0
00
00
00
00
00
00
00
ENDCHAR
STARTCHAR char9497
ENCODING 9497
SWIDTH 576 0
DWIDTH 8 0
BBX 8 14 0 -3
BITMAP
10
10
10
10
10
10
F0
F0
00
00
00
00
00
00
ENDCHAR
STARTCHAR char9498
ENCODING 9498
SWIDTH 576 0
DWIDTH 8 0
BBX 8 14 0 -3
BITMAP
18
18
18
18
18
18
F8
00
00
00
00
00
00
00
ENDCHAR
STARTCHAR char9499
ENCODING 9499
SWIDTH 576 0
DWIDTH 8 0
BBX 8 14 0 -3
BITMAP
18
18
18
18
18
18
F8
F8
00
00
00
00
00
00
ENDCHAR
STARTCHAR char9500
ENCODING 9500
SWIDTH 576 0
DWIDTH 8 0
BBX 8 14 0 -3
BITMAP
10
10
10
10
10
10
1F
10
10
10
10
10
10
10
ENDCHAR
STARTCHAR char9501
ENCODING 9501
SWIDTH 576 0
DWIDTH 8 0
BBX 8 14 0 -3
BITMAP
10
10
10
10
10
10
1F
1F
10
10
10
10
10
10
ENDCHAR
STARTCHAR char9502
ENCODING 9502
SWIDTH 576 0
DWIDTH 8 0
BBX 8 14 0 -3
BITMAP
18
18
18
18
18
18
1F
10
10
10
10
10
10
10
ENDCHAR
STARTCHAR char9503
ENCODING 9503
SWIDTH 576 0
DWIDTH 8 0
BBX 8 14 0 -3
BITMAP
10
10
10
10
10
10
1F
18
18
18
18
18
18
18
ENDCHAR
STARTCHAR char9504
ENCODING 9504
SWIDTH 576 0
DWIDTH 8 0
BBX 8 14 0 -3
BITMAP
18
18
18
18
18
18
1F
18
18
18
18
18
18
18
ENDCHAR
STARTCHAR char9505
ENCODING 9505
SWIDTH 576 0
DWIDTH 8 0
BBX 8 14 0 -3
BITMAP
18
18
18
18
18
18
1F
1F
10
10
10
10
10
10
ENDCHAR
STARTCHAR char9506
ENCODING 9506
SWIDTH 576 0
DWIDTH 8 0
BBX 8 14 0 -3
BITMAP
10
10
10
10
10
10
1F
1F
18
18
18
18
18
18
ENDCHAR
STARTCHAR char9507
ENCODING 9507
SWIDTH 576 0
DWIDTH 8 0
BBX 8 14 0 -3
BITMAP
18
18
18
18
18
18
1F
1F
18
18
18
18
18
18
ENDCHAR
STARTCHAR char9508
ENCODING 9508
SWIDTH 576 0
DWIDTH 8 0
BBX 8 14 0 -3
BITMAP
10
10
10
10
10
10
F0
10
10
10
10
10
10
10
ENDCHAR
STARTCHAR char9509
ENCODING 9509
SWIDTH 576 0
DWIDTH 8 0
BBX 8 14 0 -3
BITMAP
10
10
10
10
10
10
F0
F0
10
10
10
10
10
10
ENDCHAR
STARTCHAR char9510
ENCODING 9510
SWIDTH 576 0
DWIDTH 8 0
BBX 8 14 0 -3
BITMAP
18
18
18
18
18
18
F8
10
10
10
10
10
10
10
ENDCHAR
STARTCHAR char9511
ENCODING 9511
SWIDTH 576 0
DWIDTH 8 0
BBX 8 14 0 -3
BITMAP
10
10
10
10
10
10
F8
18
18
18
18
18
18
18
ENDCHAR
STARTCHAR char9512
ENCODING 9512
SWIDTH 576 0
DWIDTH 8 0
BBX 8 14 0 -3
BITMAP
18
18
18
18
18
18
F8
18
18
18
18
18
18
18
ENDCHAR
STARTCHAR char9513
ENCODING 9513
SWIDTH 576 0
DWIDTH 8 0
BBX 8 14 0 -3
BITMAP
18
18
18
18
18
18
F8
F8
10
10
10
10
10
10
ENDCHAR
STARTCHAR char9514
ENCODING 9514
SWIDTH 576 0
DWIDTH 8 0
BBX 8 14 0 -3
BITMAP
10
10
10
10
10
10
F8
F8
18
18
18
18
18
18
ENDCHAR
STARTCHAR char9515
ENCODING 9515
SWIDTH 576 0
DWIDTH 8 0
BBX 8 14 0 -3
BITMAP
18
18
18
18
18
18
F8
F8
18
18
18
18
18
18
ENDCHAR
STARTCHAR char9516
ENCODING 9516
SWIDTH 576 0
DWIDTH 8 0
BBX 8 14 0 -3
BITMAP
00
00
00
00
00
00
FF
10
10
10
10
10
10
10
ENDCHAR
STARTCHAR char9517
ENCODING 9517
SWIDTH 576 0
DWIDTH 8 0
BBX 8 14 0 -3
BITMAP
00
00
00
00
00
00
FF
F0
10
10
10
10
10
10
ENDCHAR
STARTCHAR char9518
ENCODING 9518
SWIDTH 576 0
DWIDTH 8 0
BBX 8 14 0 -3
BITMAP
00
00
00
00
00
00
FF
1F
10
10
10
10
10
10
ENDCHAR
STARTCHAR char9519
ENCODING 9519
SWIDTH 576 0
DWIDTH 8 0
BBX 8 14 0 -3
BITMAP
00
00
00
00
00
00
FF
FF
10
10
10
10
10
10
ENDCHAR
STARTCHAR char9520
ENCODING 9520
SWIDTH 576 0
DWIDTH 8 0
BBX 8 14 0 -3
BITMAP
00
00
00
00
00
00
FF
18
18
18
18
18
18
18
ENDCHAR
STARTCHAR char9521
ENCODING 9521
SWIDTH 576 0
DWIDTH 8 0
BBX 8 14 0 -3
BITMAP
00
00
00
00
00
00
FF
F8
18
18
18
18
18
18
ENDCHAR
STARTCHAR char9522
ENCODING 9522
SWIDTH 576 0
DWIDTH 8 0
BBX 8 14 0 -3
BITMAP
00
00
00
00
00
00
FF
1F
18
18
18
18
18
18
ENDCHAR
STARTCHAR char9523
ENCODING 9523
SWIDTH 576 0
DWIDTH 8 0
BBX 8 14 0 -3
BITMAP
00
00
00
00
00
00
FF
FF
18
18
18
18
18
18
ENDCHAR
STARTCHAR char9524
ENCODING 9524
SWIDTH 576 0
DWIDTH 8 0
BBX 8 14 0 -3
BITMAP
10
10
10
10
10
10
FF
00
00
00
00
00
00
00
ENDCHAR
STARTCHAR char9525
ENCODING 9525
SWIDTH 576 0
DWIDTH 8 0
BBX 8 14 0 -3
BITMAP
10
10
10
10
10
10
FF
F0
00
00
00
00
00
00
ENDCHAR
STARTCHAR char9526
ENCODING 9526
SWIDTH 576 0
DWIDTH 8 0
BBX 8 14 0 -3
BITMAP
10
10
10
10
10
10
FF
1F
00
00
00
00
00
00
ENDCHAR
STARTCHAR char9527
ENCODING 9527
SWIDTH 576 0
DWIDTH 8 0
BBX 8 14 0 -3
BITMAP
10
10
10
10
10
10
FF
FF
00
00
00
00
00
00
ENDCHAR
STARTCHAR char9528
ENCODING 9528
SWIDTH 576 0
DWIDTH 8 0
BBX 8 14 0 -3
BITMAP
18
18
18
18
18
18
FF
00
00
00
00
00
00
00
ENDCHAR
STARTCHAR char9529
ENCODING 9529
SWIDTH 576 0
DWIDTH 8 0
BBX 8 14 0 -3
BITMAP
18
18
18
18
18
18
FF
F8
00
00
00
00
00
00
ENDCHAR
STARTCHAR char9530
ENCODING 9530
SWIDTH 576 0
DWIDTH 8 0
BBX 8 14 0 -3
BITMAP
18
18
18
18
18
18
FF
1F
00
00
00
00
00
00
ENDCHAR
STARTCHAR char9531
ENCODING 9531
SWIDTH 576 0
DWIDTH 8 0
BBX 8 14 0 -3
BITMAP
18
18
18
18
18
18
FF
FF
00
00
00
00
00
00
ENDCHAR
STARTCHAR char9532
ENCODING 9532
SWIDTH 576 0
DWIDTH 8 0
BBX 8 14 0 -3
BITMAP
10
10
10
10
10
10
FF
10
10
10
10
10
10
10
ENDCHAR
STARTCHAR char9533
ENCODING 9533
SWIDTH 576 0
DWIDTH 8 0
BBX 8 14 0 -3
BITMAP
10
10
10
10
10
10
FF
F0
10
10
10
10
10
10
ENDCHAR
STARTCHAR char9534
ENCODING 9534
SWIDTH 576 0
DWIDTH 8 0
BBX 8 14 0 -3
BITMAP
10
10
10
10
10
10
FF
1F
10
10
10
10
10
10
ENDCHAR
STARTCHAR char9535
ENCODING 9535
SWIDTH 576 0
DWIDTH 8 0
BBX 8 14 0 -3
BITMAP
10
10
10
10
10
10
FF
FF
10
10
10
10
10
10
ENDCHAR
STARTCHAR char9536
ENCODING 9536
SWIDTH 576 0
DWIDTH 8 0
BBX 8 14 0 -3
BITMAP
18
18
18
18
18
18
FF
10
10
10
10
10
10
10
ENDCHAR
STARTCHAR char9537
ENCODING 9537
SWIDTH 576 0
DWIDTH 8 0
BBX 8 14 0 -3
BITMAP
10
10
10
10
10
10
FF
18
18
18
18
18
18
18
ENDCHAR
STARTCHAR char9538
ENCODING 9538
SWIDTH 576 0
DWIDTH 8 0
BBX 8 14 0 -3
BITMAP
18
18
18
18
18
18
FF
18
18
18
18
18
18
18
ENDCHAR
STARTCHAR char9539
ENCODING 9539
SWIDTH 576 0
DWIDTH 8 0
BBX 8 14 0 -3
BITMAP
18
18
18
18
18
18
FF
F0
10
10
10
10
10
10
ENDCHAR
STARTCHAR char9540
ENCODING 9540
SWIDTH 576 0
DWIDTH 8 0
BBX 8 14 0 -3
BITMAP
18
18
18
18
18
18
FF
1F
10
10
10
10
10
10
ENDCHAR
STARTCHAR char9541
ENCODING 9541
SWIDTH 576 0
DWIDTH 8 0
BBX 8 14 0 -3
BITMAP
10
10
10
10
10
10
FF
F8
18
18
18
18
18
18
ENDCHAR
STARTCHAR char9542
ENCODING 9542
SWIDTH 576 0
DWIDTH 8 0
BBX 8 14 0 -3
BITMAP
10
10
10
10
10
10
FF
1F
18
18
18
18
18
18
ENDCHAR
STARTCHAR char9543
ENCODING 9543
SWIDTH 576 0
DWIDTH 8 0
BBX 8 14 0 -3
BITMAP
18
18
18
18
18
18
FF
FF
10
10
10
10
10
10
ENDCHAR
STARTCHAR char9544
ENCODING 9544
SWIDTH 576 0
DWIDTH 8 0
BBX 8 14 0 -3
BITMAP
10
10
10
10
10
10
FF
FF
18
18
18
18
18
18
ENDCHAR
STARTCHAR char9545
ENCODING 9545
SWIDTH 576 0
DWIDTH 8 0
BBX 8 14 0 -3
BITMAP
18
18
18
18
18
18
FF
F8
18
18
18
18
18
18
ENDCHAR
STARTCHAR char9546
ENCODING 9546
SWIDTH 576 0
DWIDTH 8 0
BBX 8 14 0 -3
BITMAP
18
18
18
18
18
18
FF
1F
18
18
18
18
18
18
ENDCHAR
STARTCHAR char9547
ENCODING 9547
SWIDTH 576 0
DWIDTH 8 0
BBX 8 14 0 -3
BITMAP
18
18
18
18
18
18
FF
FF
18
18
18
18
18
18
ENDCHAR
STARTCHAR char9552
ENCODING 9552
SWIDTH 576 0
DWIDTH 8 0
BBX 8 14 0 -3
BITMAP
00
00
00
00
00
FF
00
FF
00
00
00
00
00
00
ENDCHAR
STARTCHAR char9553
ENCODING 9553
SWIDTH 576 0
DWIDTH 8 0
BBX 8 14 0 -3
BITMAP
28
28
28
28
28
28
28
28
28
28
28
28
28
28
ENDCHAR
STARTCHAR char9554
ENCODING 9554
SWIDTH 576 0
DWIDTH 8 0
BBX 8 14 0 -3
BITMAP
00
00
00
00
00
1F
10
1F
10
10
10
10
10
10
ENDCHAR
STARTCHAR char9555
ENCODING 9555
SWIDTH 576 0
DWIDTH 8 0
BBX 8 14 0 -3
BITMAP
00
00
00
00
00
00
3F
28
28
28
28
28
28
28
ENDCHAR
STARTCHAR char9556
ENCODING 9556
SWIDTH 576 0
DWIDTH 8 0
BBX 8 14 0 -3
BITMAP
00
00
00
00
00
3F
20
2F
28
28
28
28
28
28
ENDCHAR
STARTCHAR char9557
ENCODING 9557
SWIDTH 576 0
DWIDTH 8 0
BBX 8 14 0 -3
BITMAP
00
00
00
00
00
F0
10
F0
10
10
10
10
10
10
ENDCHAR
STARTCHAR char9558
ENCODING 9558
SWIDTH 576 0
DWIDTH 8 0
BBX 8 14 0 -3
BITMAP
00
00
00
00
00
00
F8
28
28
28
28
28
28
28
ENDCHAR
STARTCHAR char9559
ENCODING 9559
SWIDTH 576 0
DWIDTH 8 0
BBX 8 14 0 -3
BITMAP
00
00
00
00
00
F8
08
E8
28
28
28
28
28
28
ENDCHAR
STARTCHAR char9560
ENCODING 9560
SWIDTH 576 0
DWIDTH 8 0
BBX 8 14 0 -3
BITMAP
10
10
10
10
10
1F
10
1F
00
00
00
00
00
00
ENDCHAR
STARTCHAR char9561
ENCODING 9561
SWIDTH 576 0
DWIDTH 8 0
BBX 8 14 0 -3
BITMAP
28
28
28
28
28
28
3F
00
00
00
00
00
00
00
ENDCHAR
STARTCHAR char9562
ENCODING 9562
SWIDTH 576 0
DWIDTH 8 0
BBX 8 14 0 -3
BITMAP
28
28
28
28
28
2F
20
3F
00
00
00
00
00
00
ENDCHAR
STARTCHAR char9563
ENCODING 9563
SWIDTH 576 0
DWIDTH 8 0
BBX 8 14 0 -3
BITMAP
10
10
10
10
10
F0
10
F0
00
00
00
00
00
00
ENDCHAR
STARTCHAR char9564
ENCODING 9564
SWIDTH 576 0
DWIDTH 8 0
BBX 8 14 0 -3
BITMAP
28
28
28
28
28
28
F8
00
00
00
00
00
00
00
ENDCHAR
STARTCHAR char9565
ENCODING 9565
SWIDTH 576 0
DWIDTH 8 0
BBX 8 14 0 -3
BITMAP
28
28
28
28
28
E8
08
F8
00
00
00
00
00
00
ENDCHAR
STARTCHAR char9566
ENCODING 9566
SWIDTH 576 0
DWIDTH 8 0
BBX 8 14 0 -3
BITMAP
10
10
10
10
10
1F
10
1F
10
10
10
10
10
10
ENDCHAR
STARTCHAR char9567
ENCODING 9567
SWIDTH 576 0
DWIDTH 8 0
BBX 8 14 0 -3
BITMAP
28
28
28
28
28
28
2F
28
28
28
28
28
28
28
ENDCHAR
STARTCHAR char9568
ENCODING 9568
SWIDTH 576 0
DWIDTH 8 0
BBX 8 14 0 -3
BITMAP
28
28
28
28
28
2F
20
2F
28
28
28
28
28
28
ENDCHAR
STARTCHAR char9569
ENCODING 9569
SWIDTH 576 0
DWIDTH 8 0
BBX 8 14 0 -3
BITMAP
10
10
10
10
10
F0
10
F0
10
10
10
10
10
10
ENDCHAR
STARTCHAR char9570
ENCODING 9570
SWIDTH 576 0
DWIDTH 8 0
BBX 8 14 0 -3
BITMAP
28
28
28
28
28
28
E8
28
28
28
28
28
28
28
ENDCHAR
STARTCHAR char9571
ENCODING 9571
SWIDTH 576 0
DWIDTH 8 0
BBX 8 14 0 -3
BITMAP
28
28
28
28
28
E8
08
E8
28
28
28
28
28
28
ENDCHAR
STARTCHAR char9572
ENCODING 9572
SWIDTH 576 0
DWIDTH 8 0
BBX 8 14 0 -3
BITMAP
00
00
00
00
00
FF
00
FF
10
10
10
10
10
10
ENDCHAR
STARTCHAR char9573
ENCODING 9573
SWIDTH 576 0
DWIDTH 8 0
BBX 8 14 0 -3
BITMAP
00
00
00
00
00
00
FF
28
28
28
28
28
28
28
ENDCHAR
STARTCHAR char9574
ENCODING 9574
SWIDTH 576 0
DWIDTH 8 0
BBX 8 14 0 -3
BITMAP
00
00
00
00
00
FF
00
EF
28
28
28
28
28
28
ENDCHAR
STARTCHAR char9575
ENCODING 9575
SWIDTH 576 0
DWIDTH 8 0
BBX 8 14 0 -3
BITMAP
10
10
10
10
10
FF
00
FF
00
00
00
00
00
00
ENDCHAR
STARTCHAR char9576
ENCODING 9576
SWIDTH 576 0
DWIDTH 8 0
BBX 8 14 0 -3
BITMAP
28
28
28
28
28
28
FF
00
00
00
00
00
00
00
ENDCHAR
STARTCHAR char9577
ENCODING 9577
SWIDTH 576 0
DWIDTH 8 0
BBX 8 14 0 -3
BITMAP
28
28
28
28
28
EF
00
FF
00
00
00
00
00
00
ENDCHAR
STARTCHAR char9578
ENCODING 9578
SWIDTH 576 0
DWIDTH 8 0
BBX 8 14 0 -3
BITMAP
10
10
10
10
10
FF
10
FF
10
10
10
10
10
10
ENDCHAR
STARTCHAR char9579
ENCODING 9579
SWIDTH 576 0
DWIDTH 8 0
BBX 8 14 0 -3
BITMAP
28
28
28
28
28
28
FF
28
28
28
28
28
28
28
ENDCHAR
STARTCHAR char9580
ENCODING 9580
SWIDTH 576 0
DWIDTH 8 0
BBX 8 14 0 -3
BITMAP
28
28
28
28
28
EF
00
EF
28
28
28
28
28
28
ENDCHAR
STARTCHAR char9600
ENCODING 9600
SWIDTH 576 0
DWIDTH 8 0
BBX 8 14 0 -3
BITMAP
FF
FF
FF
FF
FF
FF
FF
00
00
00
00
00
00
00
ENDCHAR
STARTCHAR char9601
ENCODING 9601
SWIDTH 576 0
DWIDTH 8 0
BBX 8 14 0 -3
BITMAP
00
00
00
00
00
00
00
00
00
00
00
00
FF
FF
ENDCHAR
STARTCHAR char9602
ENCODING 9602
SWIDTH 576 0
DWIDTH 8 0
BBX 8 14 0 -3
BITMAP
00
00
00
00
00
00
00
00
00
00
00
FF
FF
FF
ENDCHAR
STARTCHAR char9603
ENCODING 9603
SWIDTH 576 0
DWIDTH 8 0
BBX 8 14 0 -3
BITMAP
00
00
00
00
00
00
00
00
00
FF
FF
FF
FF
FF
ENDCHAR
STARTCHAR char9604
ENCODING 9604
SWIDTH 576 0
DWIDTH 8 0
BBX 8 14 0 -3
BITMAP
00
00
00
00
00
00
00
FF
FF
FF
FF
FF
FF
FF
ENDCHAR
STARTCHAR char9605
ENCODING 9605
SWIDTH 576 0
DWIDTH 8 0
BBX 8 14 0 -3
BITMAP
00
00
00
00
00
FF
FF
FF
FF
FF
FF
FF
FF
FF
ENDCHAR
STARTCHAR char9606
ENCODING 9606
SWIDTH 576 0
DWIDTH 8 0
BBX 8 14 0 -3
BITMAP
00
00
00
00
FF
FF
FF
FF
FF
FF
FF
FF
FF
FF
ENDCHAR
STARTCHAR char9607
ENCODING 9607
SWIDTH 576 0
DWIDTH 8 0
BBX 8 14 0 -3
BITMAP
00
00
FF
FF
FF
FF
FF
FF
FF
FF
FF
FF
FF
FF
ENDCHAR
STARTCHAR char9608
ENCODING 9608
SWIDTH 576 0
DWIDTH 8 0
BBX 8 14 0 -3
BITMAP
FF
FF
FF
FF
FF
FF
FF
FF
FF
FF
FF
FF
FF
FF
ENDCHAR
STARTCHAR char9612
ENCODING 9612
SWIDTH 576 0
DWIDTH 8 0
BBX 8 14 0 -3
BITMAP
F0
F0
F0
F0
F0
F0
F0
F0
F0
F0
F0
F0
F0
F0
ENDCHAR
STARTCHAR char9616
ENCODING 9616
SWIDTH 576 0
DWIDTH 8 0
BBX 8 14 0 -3
BITMAP
0F
0F
0F
0F
0F
0F
0F
0F
0F
0F
0F
0F
0F
0F
ENDCHAR
STARTCHAR char9617
ENCODING 9617
SWIDTH 576 0
DWIDTH 8 0
BBX 8 14 0 -3
BITMAP
88
22
88
22
88
22
88
22
88
22
88
22
88
22
ENDCHAR
STARTCHAR char9618
ENCODING 9618
SWIDTH 576 0
DWIDTH 8 0
BBX 8 14 0 -3
BITMAP
AA
55
AA
55
AA
55
AA
55
AA
55
AA
55
AA
55
ENDCHAR
STARTCHAR char9619
ENCODING 9619
SWIDTH 576 0
DWIDTH 8 0
BBX 8 14 0 -3
BITMAP
EE
BB
EE
BB
EE
BB
EE
BB
EE
BB
EE
BB
EE
BB
ENDCHAR
STARTCHAR char9622
ENCODING 9622
SWIDTH 576 0
DWIDTH 8 0
BBX 8 14 0 -3
BITMAP
00
00
00
00
00
00
00
F0
F0
F0
F0
F0
F0
F0
ENDCHAR
STARTCHAR char9623
ENCODING 9623
SWIDTH 576 0
DWIDTH 8 0
BBX 8 14 0 -3
BITMAP
00
00
00
00
00
00
00
0F
0F
0F
0F
0F
0F
0F
ENDCHAR
STARTCHAR char9624
ENCODING 9624
SWIDTH 576 0
DWIDTH 8 0
BBX 8 14 0 -3
BITMAP
F0
F0
F0
F0
F0
F0
F0
00
00
00
00
00
00
00
ENDCHAR
STARTCHAR char9625
ENCODING 9625
SWIDTH 576 0
DWIDTH 8 0
BBX 8 14 0 -3
BITMAP
F0
F0
F0
F0
F0
F0
F0
FF
FF
FF
FF
FF
FF
FF
ENDCHAR
STARTCHAR char9626
ENCODING 9626
SWIDTH 576 0
DWIDTH 8 0
BBX 8 14 0 -3
BITMAP
F0
F0
F0
F0
F0
F0
F0
0F
0F
0F
0F
0F
0F
0F
ENDCHAR
STARTCHAR char9627
ENCODING 9627
SWIDTH 576 0
DWIDTH 8 0
BBX 8 14 0 -3
BITMAP
FF
FF
FF
FF
FF
FF
FF
F0
F0
F0
F0
F0
F0
F0
ENDCHAR
STARTCHAR char9628
ENCODING 9628
SWIDTH 576 0
DWIDTH 8 0
BBX 8 14 0 -3
BITMAP
FF
FF
FF
FF
FF
FF
FF
0F
0F
0F
0F
0F
0F
0F
ENDCHAR
STARTCHAR char9629
ENCODING 9629
SWIDTH 576 0
DWIDTH 8 0
BBX 8 14 0 -3
BITMAP
0F
0F
0F
0F
0F
0F
0F
00
00
00
00
00
00
00
ENDCHAR
STARTCHAR char9630
ENCODING 9630
SWIDTH 576 0
DWIDTH 8 0
BBX 8 14 0 -3
BITMAP
0F
0F
0F
0F
0F
0F
0F
F0
F0
F0
F0
F0
F0
F0
ENDCHAR
STARTCHAR char9631
ENCODING 9631
SWIDTH 576 0
DWIDTH 8 0
BBX 8 14 0 -3
BITMAP
0F
0F
0F
0F
0F
0F
0F
FF
FF
FF
FF
FF
FF
FF
ENDCHAR
STARTCHAR char9632
ENCODING 9632
SWIDTH 576 0
DWIDTH 8 0
BBX 8 14 0 -3
BITMAP
00
00
00
00
3C
3C
3C
3C
3C
3C
00
00
00
00
ENDCHAR
STARTCHAR char9644
ENCODING 9644
SWIDTH 576 0
DWIDTH 8 0
BBX 8 14 0 -3
BITMAP
00
00
00
00
00
00
00
00
7E
7E
7E
7E
00
00
ENDCHAR
STARTCHAR char9646
ENCODING 9646
SWIDTH 576 0
DWIDTH 8 0
BBX 8 14 0 -3
BITMAP
00
00
7E
7E
7E
7E
7E
7E
7E
7E
7E
7E
00
00
ENDCHAR
STARTCHAR char9650
ENCODING 9650
SWIDTH 576 0
DWIDTH 8 0
BBX 8 14 0 -3
BITMAP
00
00
00
10
10
38
38
7C
7C
FE
FE
00
00
00
ENDCHAR
STARTCHAR char9654
ENCODING 9654
SWIDTH 576 0
DWIDTH 8 0
BBX 8 14 0 -3
BITMAP
00
00
00
C0
F0
FC
FF
FC
F0
C0
00
00
00
00
ENDCHAR
STARTCHAR char9660
ENCODING 9660
SWIDTH 576 0
DWIDTH 8 0
BBX 8 14 0 -3
BITMAP
00
00
00
FE
FE
7C
7C
38
38
10
10
00
00
00
ENDCHAR
STARTCHAR char9664
ENCODING 9664
SWIDTH 576 0
DWIDTH 8 0
BBX 8 14 0 -3
BITMAP
00
00
00
03
0F
3F
FF
3F
0F
03
00
00
00
00
ENDCHAR
STARTCHAR char9670
ENCODING 9670
SWIDTH 576 0
DWIDTH 8 0
BBX 8 14 0 -3
BITMAP
00
00
00
00
10
38
7C
FE
7C
38
10
00
00
00
ENDCHAR
STARTCHAR char9674
ENCODING 9674
SWIDTH 576 0
DWIDTH 8 0
BBX 8 14 0 -3
BITMAP
00
00
00
00
10
28
44
82
44
28
10
00
00
00
ENDCHAR
STARTCHAR char9675
ENCODING 9675
SWIDTH 576 0
DWIDTH 8 0
BBX 8 14 0 -3
BITMAP
00
00
00
00
00
18
24
24
18
00
00
00
00
00
ENDCHAR
STARTCHAR char9688
ENCODING 9688
SWIDTH 576 0
DWIDTH 8 0
BBX 8 14 0 -3
BITMAP
FF
FF
FF
FF
FF
E7
C3
C3
E7
FF
FF
FF
FF
FF
ENDCHAR
STARTCHAR char9689
ENCODING 9689
SWIDTH 576 0
DWIDTH 8 0
BBX 8 14 0 -3
BITMAP
FF
FF
FF
FF
FF
E7
DB
DB
E7
FF
FF
FF
FF
FF
ENDCHAR
STARTCHAR char9786
ENCODING 9786
SWIDTH 576 0
DWIDTH 8 0
BBX 8 14 0 -3
BITMAP
00
00
7C
82
AA
82
82
BA
92
82
82
7C
00
00
ENDCHAR
STARTCHAR char9787
ENCODING 9787
SWIDTH 576 0
DWIDTH 8 0
BBX 8 14 0 -3
BITMAP
00
00
7C
FE
D6
FE
FE
C6
EE
FE
FE
7C
00
00
ENDCHAR
STARTCHAR char9788
ENCODING 9788
SWIDTH 576 0
DWIDTH 8 0
BBX 8 14 0 -3
BITMAP
00
00
00
10
92
54
38
EE
38
54
92
10
00
00
ENDCHAR
STARTCHAR char9792
ENCODING 9792
SWIDTH 576 0
DWIDTH 8 0
BBX 8 14 0 -3
BITMAP
00
00
38
44
44
44
44
38
10
7C
10
10
00
00
ENDCHAR
STARTCHAR char9794
ENCODING 9794
SWIDTH 576 0
DWIDTH 8 0
BBX 8 14 0 -3
BITMAP
00
00
1E
06
0A
12
38
44
44
44
44
38
00
00
ENDCHAR
STARTCHAR char9824
ENCODING 9824
SWIDTH 576 0
DWIDTH 8 0
BBX 8 14 0 -3
BITMAP
00
00
10
10
38
7C
FE
FE
7C
10
10
38
00
00
ENDCHAR
STARTCHAR char9827
ENCODING 9827
SWIDTH 576 0
DWIDTH 8 0
BBX 8 14 0 -3
BITMAP
00
00
10
38
38
10
54
FE
FE
54
10
38
00
00
ENDCHAR
STARTCHAR char9829
ENCODING 9829
SWIDTH 576 0
DWIDTH 8 0
BBX 8 14 0 -3
BITMAP
00
00
00
6C
FE
FE
FE
FE
7C
38
10
00
00
00
ENDCHAR
STARTCHAR char9830
ENCODING 9830
SWIDTH 576 0
DWIDTH 8 0
BBX 8 14 0 -3
BITMAP
00
00
00
00
10
38
7C
FE
7C
38
10
00
00
00
ENDCHAR
STARTCHAR char9834
ENCODING 9834
SWIDTH 576 0
DWIDTH 8 0
BBX 8 14 0 -3
BITMAP
00
00
3E
22
3E
20
20
20
20
20
20
C0
00
00
ENDCHAR
STARTCHAR char9835
ENCODING 9835
SWIDTH 576 0
DWIDTH 8 0
BBX 8 14 0 -3
BITMAP
00
00
7E
42
7E
42
42
42
42
42
42
44
80
00
ENDCHAR
STARTCHAR char63166
ENCODING 63166
SWIDTH 576 0
DWIDTH 8 0
BBX 8 14 0 -3
BITMAP
00
00
00
00
00
0C
04
04
04
04
04
44
44
38
ENDCHAR
STARTCHAR char65533
ENCODING 65533
SWIDTH 576 0
DWIDTH 8 0
BBX 8 14 0 -3
BITMAP
00
00
7E
42
42
42
42
42
42
42
42
7E
00
00
ENDCHAR
ENDFONT
